<?xml version="1.0" standalone="no"?><!DOCTYPE svg PUBLIC "-//W3C//DTD SVG 1.1//EN" "http://www.w3.org/Graphics/SVG/1.1/DTD/svg11.dtd"><svg class="icon" width="200px" height="200.00px" viewBox="0 0 1024 1024" version="1.1" xmlns="http://www.w3.org/2000/svg"><path d="M543.704399 97.916906c-20.345633 230.272992-83.803086 473.694825-194.585016 713.447309-94.673282-15.999176-186.00563-38.919436-273.429412-68.371544C176.64372 538.445674 234.935702 330.959142 255.370534 136.28898c94.478664-5.39658 190.826467-18.131859 288.333865-38.372074z" fill="#74C7AE" /><path d="M274.163282 221.125972c-22.66077 143.688498-65.16441 292.749249-129.221934 441.432928 20.79974 8.676695 29.107473 35.213595 18.735984 64.426485a1794.49455 1794.49455 0 0 0 126.606762 28.734456c17.166881-31.07392 47.133914-52.879184 72.653128-51.626333 68.687797-168.279224 114.001227-337.146355 137.46074-500.596634-25.357032 1.621812-42.175224-20.779468-41.356209-51.277644a1955.520219 1955.520219 0 0 1-132.530431 14.584145c-6.045305 27.943823-28.373603 50.977609-52.34804 54.322597z" fill="#81DEC2" /><path d="M302.540939 557.137058c-48.719236-6.142613-70.658299-59.058288-54.476668-115.108114 16.343811-56.122808 65.780699-99.660354 115.53384-100.649659 49.582851-0.924433 80.125627 46.850097 62.796564 110.129151-17.207426 63.193909-75.252082 111.880708-123.853736 105.628622z" fill="#71C2A9" /><path d="M242.89069 652.483392c12.264954-16.956046 31.317192-23.82442 42.900985-15.086907 11.571629 8.729404 10.898577 30.335995-1.877248 47.993474-12.763661 17.665588-32.375424 24.112291-43.440237 14.685509-11.076977-9.447056-9.840345-30.636031 2.4165-47.592076zM363.375111 219.925831c7.89417-17.677752 25.07727-28.134386 38.749146-23.200023 13.659712 4.930309 18.362968 24.031201 10.116053 42.503641-8.234751 18.47244-26.013866 28.677693-39.320834 22.956751-13.315077-5.729051-17.426371-24.578562-9.544365-42.260369z" fill="#E5E600" /><path d="M210.904501 697.760331c146.65236-192.330698 261.460439-409.56432 337.243664-639.038569l266.167748 63.145254c-89.374011 270.627732-224.76694 526.817281-397.725092 753.635813l-205.68632-177.742498z" fill="#74C7AE" /><path d="M540.452666 166.024905c-63.080382 163.786805-145.796854 320.307891-245.509916 464.884331 15.784286 16.234339 14.912562 48.759781-2.866553 77.741564l96.785692 78.966031c24.42449-28.479021 56.325534-41.47379 76.448168-29.25749 113.33223-164.374711 207.364896-342.299663 279.105754-528.483693-21.935009-9.264602-29.399399-43.03073-19.271182-79.594484l-121.18991-32.36326c-13.789457 31.605063-40.683157 51.504698-63.502053 48.107001z" fill="#81DEC2" /><path d="M451.403018 415.317699c31.236101-59.001524 88.798267-94.271883 132.380413-76.886058 43.488892 17.325008 53.649544 87.18051 18.38324 153.893751-35.197377 66.749732-99.088665 98.683212-138.514917 73.662706-39.523561-25.061052-43.346983-91.604002-12.248736-150.670399z" fill="#71C2A9" /><path d="M373.803363 663.341424c12.613644-18.64273 32.217297-27.327534 44.174107-19.141437 11.936537 8.186097 11.316194 30.733339-1.788047 50.093721-13.092078 19.368491-33.307966 27.631624-44.762015 18.73193-11.466212-8.911858-10.22958-31.033375 2.375955-49.684214zM614.314044 206.947279c8.250969-20.937594 25.932776-34.735161 39.953341-30.668467 14.000293 4.066694 18.77653 25.12187 10.213362 46.858207-8.551004 21.740391-26.946408 35.274413-40.630448 30.408977-13.704312-4.8776-17.771006-25.661122-9.536255-46.598717z" fill="#E5E600" /><path d="M339.437165 780.253804c127.587958-208.597473 201.497991-443.05474 216.767351-689.683707 130.701838 20.442942 261.403675 40.893992 392.105513 61.345043-18.002114 290.859838-105.166406 567.354474-255.642188 813.363098l-353.230676-185.024434z" fill="#74C7AE" /><path d="M587.367636 205.260595c-23.30544 176.238267-76.55764 345.162161-157.932063 501.735956 28.114113 16.968209 39.57627 51.70337 26.317956 83.032726l164.390929 82.07991c22.632388-30.956339 61.620751-45.544538 94.166466-32.967385 92.463563-177.997933 153.001754-370.036705 179.546764-570.366991-33.899928-9.394347-57.355385-45.260721-57.610821-84.516683l-179.940053-31.787517c-6.726466 34.054-36.109647 55.899809-68.939178 52.789984z" fill="#81DEC2" /><path d="M561.507842 473.346136c20.151015-63.680452 85.891169-102.62827 152.839573-85.059991 66.790277 17.499353 108.028904 91.818892 85.315425 163.823296-22.599952 72.040894-98.379122 107.574797-162.56639 81.763657-64.333232-25.84763-95.528788-96.781637-75.588608-160.526962z" fill="#71C2A9" /><path d="M550.966063 739.817974c10.152544-20.183452 33.835055-29.902161 53.527909-21.432247 19.668526 8.461805 27.595133 32.537605 17.037136 53.503581-10.525561 20.974085-35.225759 30.25085-54.505051 21.010576-19.299564-9.248384-26.212538-32.89035-16.059994-53.08191zM705.293649 247.261474c3.231461-22.535079 22.271535-37.658477 43.217238-33.636383 20.917322 4.022094 35.712303 26.382828 32.351097 49.777468-3.344987 23.39464-23.459512 38.258548-44.255198 33.372838-20.820013-4.893818-34.532434-26.982899-31.313137-49.513923z" fill="#E5E600" /></svg>