<?xml version="1.0" standalone="no"?><!DOCTYPE svg PUBLIC "-//W3C//DTD SVG 1.1//EN" "http://www.w3.org/Graphics/SVG/1.1/DTD/svg11.dtd"><svg class="icon" width="200px" height="187.55px" viewBox="0 0 1092 1024" version="1.1" xmlns="http://www.w3.org/2000/svg"><path d="M304.579765 746.797176c-0.912134 0-1.824269-0.038723-2.736404-0.111865-7.641277-0.615261-15.076034-3.867966-21.491092-9.413916-69.369546-59.916908-130.680471-98.222252-207.678387-147.787294-14.073546-9.091227-23.719798-25.978622-25.186958-44.079328-1.50158-18.707361 5.881546-36.343395 19.266689-46.036975C138.511059 447.449277 218.533647 390.544134 287.632134 330.218487c7.456269-6.535529 16.371092-9.994756 25.767799-9.994756 15.622454 0 30.337076 9.568807 39.363764 25.591395 14.766252 26.159328 10.106622 61.315227-10.39489 78.361815-49.608067 41.433277-109.094723 81.304739-160.027967 118.66353 54.581782 36.050824 94.991059 57.92484 145.78232 99.121479 20.217546 16.293647 26.395966 51.18279 13.746554 77.746554-8.045714 16.956235-21.985882 27.088672-37.289949 27.088672z" fill="#9998D1" /><path d="M313.399933 330.980034c11.767395 0 23.685378 7.13358 31.262117 20.58326 12.098689 21.426555 8.27805 50.438454-7.998386 63.974185C282.047462 461.148504 218.71005 503.726252 164.072336 543.330958c59.245714 38.447328 103.527261 62.812504 158.431731 107.343597 16.40121 13.213042 21.271664 42.190521 10.906891 63.961277-6.595765 13.901445-17.657546 21.405042-28.835496 21.405042-0.679798 0-1.355294-0.030118-2.039395-0.08605-5.640605-0.451765-11.255395-2.813849-16.336672-7.211026C216.257613 668.332101 155.097277 630.138622 77.445378 580.151933c-11.449008-7.396034-19.215059-20.992-20.41116-35.723832-1.178891-14.727529 4.435899-28.431059 14.916841-36.025009 70.991597-51.363496 150.764639-107.881412 221.566924-169.691428 5.946084-5.210353 12.890353-7.73163 19.88195-7.73163m0-21.512605c-11.556571 0-22.51079 4.250891-31.683765 12.288C212.867227 381.857345 133.081277 438.581782 61.564773 490.319597c-16.396908 11.874958-25.445109 33.344538-23.625143 56.031731 1.776941 21.878319 12.967798 41.476303 29.941244 52.439126 76.645109 49.345613 137.594622 87.375597 206.628571 146.999933 7.899429 6.832403 17.119731 10.850958 26.658421 11.621109 1.122958 0.090353 2.263126 0.137681 3.407596 0.13768 18.905277 0 36.012101-12.266487 45.757311-32.806722 14.817882-31.124437 7.353008-72.200605-16.646454-91.54474-46.880269-38.021378-83.038655-57.072941-133.261983-90.821916 46.798521-34.717042 102.077311-71.490689 147.688336-109.58521 24.412504-20.303597 30.147765-61.921882 12.74837-92.74084-10.78642-19.141916-28.530017-30.582319-47.461109-30.582319z" fill="#9998D1" /><path d="M739.556034 817.668303c-0.838992 0-1.677983-0.03442-2.504068-0.098958-16.457143-1.342387-30.306958-15.34279-36.154084-36.549916-8.265143-30.117647 1.712403-65.974857 22.704404-81.653244a3578.337882 3578.337882 0 0 0 170.07005-134.647395c-53.16195-46.178958-82.651429-70.802286-139.75879-111.491227-21.719126-15.570824-31.223395-51.591529-21.658891-82.027563 7.086252-22.566723 23.504672-37.147966 41.816202-37.147966 7.168 0 14.095059 2.185681 20.600471 6.501109 83.408672 55.640202 137.69358 98.26958 213.327596 164.907025 13.574454 11.943798 21.306084 34.497613 20.170219 58.858487-1.11005 23.973647-10.605714 46.277916-24.786824 58.208807-79.261042 66.779429-161.077782 130.078118-243.174185 188.136336-6.458084 4.577882-13.608874 7.004504-20.6521 7.004505z" fill="#9998D1" /><path d="M774.066555 344.808336c5.20605 0 10.532571 1.596235 15.635361 4.978017 83.305412 55.571361 136.682487 97.495126 212.273479 164.098151 11.109109 9.771025 17.49405 28.943059 16.517378 49.874824-0.97237 20.944672-9.112739 40.224269-20.961882 50.19321-80.749714 68.031462-161.770487 130.529882-242.524504 187.637244-5.111395 3.627025-10.377681 5.322218-15.450353 5.322218-0.606655 0-1.209008-0.025815-1.807059-0.073143-12.077176-0.985277-22.790454-11.556571-27.592067-28.973176-7.008807-25.53116 1.140168-56.350118 18.849344-69.571765a3581.625008 3581.625008 0 0 0 180.495059-143.433143c-56.603966-49.762958-89.247193-77.144202-150.360202-120.690017-17.963025-12.877445-25.853849-43.623261-17.743596-69.429781 5.881546-18.728874 18.866555-29.928336 32.669042-29.932639m0-21.512605c-22.49358 0-42.496 17.412303-50.963362 44.358992-11.152134 35.500101-0.176403 76.163227 25.535462 94.590924 53.342655 38.008471 79.183597 59.503866 129.114353 102.34837a3564.531092 3564.531092 0 0 1-159.511663 125.818622c-24.778218 18.496538-36.201412 58.776739-26.615395 93.726117 7.056134 25.574185 24.180168 42.487395 44.707495 44.156773 1.084235 0.090353 2.146958 0.129076 3.222589 0.129076 8.897613 0 17.846857-3.011765 25.879663-8.704 82.290017-58.195899 164.321882-121.666689 243.802353-188.631126 16.384-13.780975 27.342521-39.161546 28.594555-66.228706 1.303664-27.768471-7.826286-53.768605-23.831664-67.842151-75.943798-66.912807-130.585815-109.808941-214.321479-165.672874-7.959664-5.274891-16.801345-8.050017-25.612907-8.050017z" fill="#9998D1" /><path d="M432.863731 955.42642a29.09795 29.09795 0 0 1-9.512874-3.17526c-18.307227-9.882891-25.939899-37.109244-17.326252-61.30232C486.45163 666.361546 539.239261 425.536538 558.075697 173.894992c2.000672-27.075765 22.016-46.036975 45.236706-41.919463 23.177681 4.108908 40.297412 30.427429 37.763227 58.355093-23.083025 258.340571-81.003563 505.262252-167.363764 735.16316-7.778958 20.682218-24.842756 32.337748-40.848135 29.932638z" fill="#FF6A6E" /><path d="M437.050084 977.253109a50.589042 50.589042 0 0 1-23.848874-6.032134c-27.592067-14.891025-39.617613-53.303933-27.445781-87.48316C467.645311 655.058824 518.402151 415.70958 536.623328 172.290151c2.624538-35.560336 28.58595-62.386555 60.377277-62.386554 3.338756 0 6.72484 0.301176 10.063597 0.890621 34.093176 6.040739 58.96605 42.594958 55.43368 81.481143-22.700101 254.059563-79.441748 503.304605-168.650218 740.782252-10.093714 26.852034-32.389378 44.195496-56.79758 44.195496zM597.000605 152.928807c-9.009479 0-16.521681 9.69358-17.472538 22.553815-18.513748 247.296-70.07516 490.448672-153.251496 722.720269-5.326521 14.955563-0.54642 30.887798 7.292774 35.117176a7.391731 7.391731 0 0 0 3.480739 0.907832c5.167328 0 12.498824-5.601882 16.525983-16.302252C541.412034 684.08363 597.288874 438.642017 619.649076 188.416c1.62205-17.86837-9.271933-33.340235-20.088471-35.25916a15.084639 15.084639 0 0 0-2.56-0.228033z" fill="#FF6A6E" /></svg>