<svg width="267" height="267" viewBox="0 0 267 267" fill="none" xmlns="http://www.w3.org/2000/svg">
<g filter="url(#filter0_d_128_367)">
<rect x="4" width="259" height="259" rx="12" fill="#FFE9BB"/>
<path d="M198.667 47.6165C198.667 52.4788 200.598 57.142 204.036 60.5802C207.475 64.0183 212.138 65.9499 217 65.9499C221.862 65.9499 226.525 64.0183 229.964 60.5802C233.402 57.142 235.333 52.4788 235.333 47.6165C235.333 42.7542 233.402 38.0911 229.964 34.6529C226.525 31.2147 221.862 29.2832 217 29.2832C212.138 29.2832 207.475 31.2147 204.036 34.6529C200.598 38.0911 198.667 42.7542 198.667 47.6165Z" fill="#FF6242"/>
<path d="M217 29.2832C206.917 29.2832 198.667 37.5332 198.667 47.6165C198.667 57.6999 206.917 65.9499 217 65.9499C227.083 65.9499 235.333 57.6999 235.333 47.6165C235.333 37.5332 227.083 29.2832 217 29.2832ZM217 63.1999C207.742 63.1999 200.317 55.6832 200.317 46.5165C200.317 37.1665 207.742 29.7415 217 29.7415C226.258 29.7415 233.775 37.1665 233.775 46.4249C233.775 55.6832 226.258 63.1999 217 63.1999Z" fill="#E04122"/>
<path d="M211.5 32.9502C211.5 33.3149 212.079 33.6646 213.111 33.9225C214.142 34.1803 215.541 34.3252 217 34.3252C218.459 34.3252 219.858 34.1803 220.889 33.9225C221.921 33.6646 222.5 33.3149 222.5 32.9502C222.5 32.5855 221.921 32.2358 220.889 31.9779C219.858 31.7201 218.459 31.5752 217 31.5752C215.541 31.5752 214.142 31.7201 213.111 31.9779C212.079 32.2358 211.5 32.5855 211.5 32.9502Z" fill="#FF866E"/>
<path opacity="0.15" d="M203.25 69.3418C203.25 69.7065 204.699 70.0562 207.277 70.3141C209.856 70.5719 213.353 70.7168 217 70.7168C220.647 70.7168 224.144 70.5719 226.723 70.3141C229.301 70.0562 230.75 69.7065 230.75 69.3418C230.75 68.9771 229.301 68.6274 226.723 68.3695C224.144 68.1117 220.647 67.9668 217 67.9668C213.353 67.9668 209.856 68.1117 207.277 68.3695C204.699 68.6274 203.25 68.9771 203.25 69.3418Z" fill="#45413C"/>
<path d="M226.625 50.3667C226.625 50.7314 226.866 51.0811 227.296 51.339C227.726 51.5968 228.309 51.7417 228.917 51.7417C229.524 51.7417 230.107 51.5968 230.537 51.339C230.967 51.0811 231.208 50.7314 231.208 50.3667C231.208 50.002 230.967 49.6523 230.537 49.3944C230.107 49.1366 229.524 48.9917 228.917 48.9917C228.309 48.9917 227.726 49.1366 227.296 49.3944C226.866 49.6523 226.625 50.002 226.625 50.3667Z" fill="#E04122"/>
<path d="M202.792 50.3667C202.792 50.7314 203.033 51.0811 203.463 51.339C203.893 51.5968 204.476 51.7417 205.083 51.7417C205.691 51.7417 206.274 51.5968 206.704 51.339C207.134 51.0811 207.375 50.7314 207.375 50.3667C207.375 50.002 207.134 49.6523 206.704 49.3944C206.274 49.1366 205.691 48.9917 205.083 48.9917C204.476 48.9917 203.893 49.1366 203.463 49.3944C203.033 49.6523 202.792 50.002 202.792 50.3667Z" fill="#E04122"/>
<path d="M206.458 46.6999C206.458 46.943 206.555 47.1761 206.727 47.3481C206.899 47.52 207.132 47.6165 207.375 47.6165C207.618 47.6165 207.851 47.52 208.023 47.3481C208.195 47.1761 208.292 46.943 208.292 46.6999C208.292 46.4568 208.195 46.2236 208.023 46.0517C207.851 45.8798 207.618 45.7832 207.375 45.7832C207.132 45.7832 206.899 45.8798 206.727 46.0517C206.555 46.2236 206.458 46.4568 206.458 46.6999Z" fill="#45413C"/>
<path d="M225.708 46.6999C225.708 46.943 225.805 47.1761 225.977 47.3481C226.149 47.52 226.382 47.6165 226.625 47.6165C226.868 47.6165 227.101 47.52 227.273 47.3481C227.445 47.1761 227.542 46.943 227.542 46.6999C227.542 46.4568 227.445 46.2236 227.273 46.0517C227.101 45.8798 226.868 45.7832 226.625 45.7832C226.382 45.7832 226.149 45.8798 225.977 46.0517C225.805 46.2236 225.708 46.4568 225.708 46.6999Z" fill="#45413C"/>
<path d="M231.208 63.1999H202.792C202.242 63.1999 201.875 62.8332 201.875 62.2832V53.5749C201.875 53.0249 202.242 52.6582 202.792 52.6582H231.208C231.758 52.6582 232.125 53.0249 232.125 53.5749V62.2832C232.125 62.7415 231.758 63.1999 231.208 63.1999Z" fill="white"/>
<path d="M207.65 57.4251L208.567 58.4334L208.933 58.0668C209.025 57.8834 209.208 57.7918 209.3 57.7918C209.392 57.7001 209.483 57.7001 209.667 57.7001C209.758 57.7001 209.942 57.7918 210.033 57.8834C210.125 57.9751 210.217 58.1584 210.217 58.2501C210.217 58.3418 210.217 58.5251 210.125 58.6168C210.033 58.8001 209.942 58.8918 209.758 59.0751L209.575 59.3501L210.217 59.9918C210.308 60.0834 210.308 60.1751 210.4 60.1751C210.492 60.1751 210.492 60.2668 210.492 60.4501C210.492 60.6334 210.4 60.7251 210.308 60.8168C209.85 60.9084 209.667 61.0001 209.575 61.0001C209.392 61.0001 209.208 60.9084 209.117 60.8168L208.475 60.1751C208.292 60.3584 208.108 60.4501 207.925 60.6334C207.742 60.7251 207.467 60.8168 207.283 60.9084C207.008 61.0001 206.733 61.0001 206.55 61.0001C206.183 61.0001 205.817 60.9084 205.45 60.8168C205.083 60.6334 204.9 60.4501 204.717 60.1751C204.533 59.9001 204.442 59.5334 204.442 59.1668C204.442 58.8001 204.533 58.4334 204.808 58.0668C205.083 57.7001 205.358 57.5168 205.725 57.2418C205.542 57.0584 205.358 56.8751 205.267 56.6918C205.175 56.5084 205.083 56.2334 205.083 55.9584C205.083 55.6834 205.175 55.4084 205.358 55.1334C205.542 54.8584 205.725 54.7668 206 54.6751C206.275 54.5834 206.55 54.4918 206.917 54.4918C207.192 54.4918 207.467 54.5834 207.742 54.6751C208.017 54.7668 208.292 54.9501 208.475 55.1334C208.658 55.3168 208.75 55.5918 208.75 55.8668C208.75 56.2334 208.658 56.5084 208.475 56.7834C208.2 57.0584 207.925 57.2418 207.65 57.4251ZM207.65 59.3501L206.367 57.9751C206.092 58.1584 205.908 58.2501 205.817 58.4334C205.725 58.6168 205.633 58.8001 205.633 59.0751C205.633 59.3501 205.725 59.5334 205.908 59.7168C206.092 59.9001 206.275 59.9001 206.55 59.9001C206.733 59.9001 207.008 59.9001 207.1 59.8084C207.192 59.7168 207.467 59.5334 207.65 59.3501ZM207.558 56.0501C207.558 55.8668 207.467 55.7751 207.375 55.6834C207.283 55.5918 207.1 55.5918 207.008 55.5918C206.917 55.5918 206.733 55.5918 206.642 55.6834C206.55 55.7751 206.458 55.8668 206.458 55.9584C206.458 56.0501 206.458 56.2334 206.55 56.3251C206.642 56.4168 206.733 56.6001 206.917 56.7834C207.375 56.5084 207.558 56.2334 207.558 56.0501ZM212.417 59.7168V58.2501C212.233 58.1584 212.05 58.1584 211.775 58.0668C211.5 57.9751 211.317 57.8834 211.133 57.7918C210.95 57.7001 210.767 57.5168 210.675 57.3334C210.583 57.0584 210.583 56.7834 210.583 56.5084C210.583 56.1418 210.675 55.8668 210.858 55.5001C211.042 55.1334 211.225 54.9501 211.5 54.7668C211.775 54.5834 212.142 54.4918 212.417 54.4918V54.2168V54.0334C212.417 54.0334 212.417 53.9418 212.508 53.9418C212.6 53.9418 212.6 53.8501 212.692 53.8501C212.783 53.8501 212.875 53.8501 212.875 53.9418V54.4918C213.242 54.4918 213.608 54.5834 213.883 54.7668C214.25 54.9501 214.342 55.1334 214.342 55.4084C214.342 55.5918 214.25 55.7751 214.158 55.8668C214.067 55.9584 213.883 56.0501 213.7 56.0501C213.608 56.0501 213.425 56.0501 213.242 55.9584C213.058 55.8668 212.875 55.8668 212.783 55.8668V57.0584C213.15 57.1501 213.517 57.3334 213.792 57.4251C214.067 57.5168 214.25 57.7001 214.525 57.9751C214.708 58.2501 214.8 58.6168 214.8 58.9834C214.8 59.2584 214.708 59.5334 214.617 59.8084C214.525 60.0834 214.342 60.2668 214.158 60.4501C213.975 60.6334 213.792 60.7251 213.517 60.9084C213.242 61.0001 213.058 61.0918 212.783 61.0918V61.5501C212.783 61.6418 212.783 61.6418 212.692 61.7334C212.6 61.8251 212.6 61.8251 212.508 61.8251C212.417 61.8251 212.325 61.8251 212.325 61.7334V61.0001C212.05 61.0001 211.775 61.0001 211.5 60.9084C211.225 60.8168 210.95 60.7251 210.767 60.6334C210.583 60.4501 210.492 60.2668 210.492 60.0834C210.492 59.9001 210.583 59.7168 210.675 59.6251C210.767 59.5334 210.95 59.4418 211.133 59.4418C211.225 59.4418 211.5 59.5334 211.775 59.6251C212.05 59.6251 212.233 59.7168 212.417 59.7168ZM212.417 56.7834V55.7751C212.325 55.7751 212.142 55.8668 212.05 55.9584C211.958 56.0501 211.958 56.1418 211.958 56.3251C211.958 56.4168 211.958 56.5084 212.05 56.6001C212.142 56.6918 212.233 56.7834 212.417 56.7834ZM212.875 58.4334V59.7168C213.058 59.7168 213.15 59.6251 213.333 59.4418C213.517 59.2584 213.517 59.1668 213.517 58.9834C213.517 58.7084 213.333 58.5251 212.875 58.4334ZM216.542 61.0001C216.358 61.0001 216.175 60.9084 216.083 60.8168C215.992 60.7251 215.9 60.5418 215.9 60.3584C215.9 60.1751 215.992 59.9918 216.083 59.9001C216.175 59.8084 216.358 59.7168 216.542 59.7168C216.725 59.7168 216.908 59.8084 217 59.9001C217.092 59.9918 217.183 60.1751 217.183 60.3584C217.183 60.5418 217.092 60.7251 217 60.8168C216.908 60.9084 216.725 61.0001 216.542 61.0001ZM215.9 58.5251V55.1334C215.9 54.9501 215.992 54.7668 216.083 54.6751C216.175 54.5834 216.358 54.4918 216.542 54.4918C216.725 54.4918 216.908 54.5834 217 54.6751C217.092 54.7668 217.183 54.9501 217.183 55.1334V58.5251C217.183 58.7084 217.092 58.8918 217 58.9834C216.908 59.0751 216.725 59.1668 216.542 59.1668C216.358 59.1668 216.175 59.0751 216.083 58.9834C215.992 58.8001 215.9 58.7084 215.9 58.5251ZM219.292 58.2501L219.475 57.2418H218.742C218.558 57.2418 218.467 57.2418 218.467 57.1501C218.467 57.0584 218.375 56.9668 218.375 56.8751C218.375 56.7834 218.375 56.6918 218.467 56.6001C218.558 56.5084 218.65 56.5084 218.742 56.5084H219.658L219.842 55.1334C219.842 54.9501 219.933 54.8584 219.933 54.7668C220.025 54.6751 220.117 54.6751 220.208 54.6751C220.3 54.6751 220.392 54.6751 220.483 54.7668C220.575 54.8584 220.575 54.9501 220.575 55.0418V55.2251L220.392 56.4168H221.217L221.4 55.0418C221.4 54.8584 221.492 54.7668 221.492 54.6751C221.583 54.5834 221.675 54.5834 221.767 54.5834C221.858 54.5834 221.95 54.5834 222.042 54.6751C222.133 54.7668 222.133 54.8584 222.133 54.9501V56.4168H222.867C223.05 56.4168 223.142 56.4168 223.142 56.5084C223.233 56.6001 223.233 56.6918 223.233 56.7834C223.233 56.8751 223.233 56.9668 223.142 57.0584C223.05 57.1501 222.958 57.1501 222.867 57.1501H221.95L221.858 58.2501H222.592C222.775 58.2501 222.867 58.2501 222.867 58.3418C222.958 58.4334 222.958 58.5251 222.958 58.6168C222.958 58.7084 222.958 58.8001 222.867 58.8918C222.775 58.9834 222.683 58.9834 222.592 58.9834H221.675L221.492 60.3584C221.492 60.5418 221.4 60.6334 221.4 60.7251C221.308 60.8168 221.217 60.8168 221.125 60.8168C221.033 60.8168 220.942 60.8168 220.85 60.7251C220.758 60.6334 220.758 60.5418 220.758 60.4501V60.2668L220.942 58.9834H220.117L219.933 60.3584C219.933 60.5418 219.842 60.6334 219.842 60.7251C219.842 60.8168 219.658 60.8168 219.567 60.8168C219.475 60.8168 219.383 60.8168 219.292 60.7251C219.2 60.6334 219.2 60.5418 219.2 60.4501V60.2668L219.383 58.9834H218.65C218.467 58.9834 218.375 58.9834 218.375 58.8918C218.283 58.8001 218.283 58.7084 218.283 58.6168C218.283 58.5251 218.283 58.4334 218.375 58.3418C218.467 58.2501 218.558 58.2501 218.65 58.2501H219.292ZM220.3 57.2418L220.117 58.2501H220.942L221.125 57.2418H220.3ZM224.883 57.3334C224.517 57.3334 224.15 57.1501 223.875 56.8751C223.6 56.6001 223.508 56.2334 223.508 55.8668C223.508 55.5918 223.6 55.4084 223.692 55.1334C223.783 54.9501 223.967 54.7668 224.15 54.5834C224.333 54.4918 224.608 54.4001 224.883 54.4001C225.158 54.4001 225.342 54.4918 225.525 54.5834C225.708 54.6751 225.892 54.8584 225.983 55.1334C226.075 55.3168 226.167 55.5918 226.167 55.8668C226.167 56.1418 226.075 56.3251 225.983 56.6001C225.892 56.7834 225.708 56.9668 225.525 57.1501C225.342 57.3334 225.158 57.3334 224.883 57.3334ZM224.883 56.5084C225.067 56.5084 225.158 56.4168 225.25 56.3251C225.342 56.2334 225.342 56.1418 225.342 55.9584C225.342 55.7751 225.342 55.6834 225.25 55.5918C225.158 55.5001 225.067 55.4084 224.883 55.4084C224.7 55.4084 224.608 55.5001 224.517 55.5918C224.425 55.6834 224.425 55.7751 224.425 55.9584C224.425 56.1418 224.425 56.2334 224.517 56.3251C224.608 56.4168 224.792 56.5084 224.883 56.5084ZM224.608 60.2668L227.542 54.7668C227.633 54.6751 227.633 54.5834 227.725 54.5834C227.817 54.5834 227.817 54.4918 228 54.4918C228.092 54.4918 228.183 54.4918 228.275 54.5834C228.367 54.5834 228.458 54.6751 228.458 54.7668C228.55 54.8584 228.55 54.9501 228.55 55.0418C228.55 55.1334 228.55 55.2251 228.458 55.3168L225.525 60.8168C225.342 60.9084 225.25 60.9084 225.25 61.0001C225.25 61.0001 225.158 61.0918 225.067 61.0918C224.975 61.0918 224.883 61.0001 224.7 60.9084C224.608 60.8168 224.517 60.7251 224.517 60.5418C224.517 60.4501 224.517 60.3584 224.608 60.2668ZM228 61.0001C227.633 61.0001 227.267 60.8168 226.992 60.5418C226.717 60.2668 226.625 59.9001 226.625 59.5334C226.625 59.2584 226.717 59.0751 226.808 58.8001C226.9 58.6168 227.083 58.4334 227.267 58.2501C227.45 58.1584 227.725 58.0668 228 58.0668C228.275 58.0668 228.458 58.1584 228.642 58.2501C228.825 58.3418 229.008 58.5251 229.1 58.8001C229.192 58.9834 229.283 59.2584 229.283 59.5334C229.283 59.8084 229.192 59.9918 229.1 60.2668C229.008 60.4501 228.825 60.6334 228.642 60.8168C228.458 61.0001 228.275 61.0001 228 61.0001ZM228 60.0834C228.183 60.0834 228.275 59.9918 228.367 59.9001C228.458 59.8084 228.458 59.7168 228.458 59.5334C228.458 59.3501 228.458 59.2584 228.367 59.1668C228.275 59.0751 228.183 58.9834 228 58.9834C227.817 58.9834 227.725 59.0751 227.633 59.1668C227.542 59.2584 227.542 59.3501 227.542 59.5334C227.542 59.7168 227.542 59.8084 227.633 59.9001C227.725 60.0834 227.817 60.0834 228 60.0834Z" fill="#FF6242"/>
<ellipse cx="201" cy="59.5" rx="24" ry="24.5" fill="#F9F9F9"/>
<path d="M184.188 58.8624C184.187 60.9417 184.597 63.0007 185.393 64.9218C186.188 66.8429 187.354 68.5884 188.825 70.0588C190.295 71.5291 192.04 72.6955 193.962 73.4912C195.883 74.287 197.942 74.6965 200.021 74.6965C202.1 74.6965 204.159 74.287 206.08 73.4912C208.001 72.6955 209.747 71.5291 211.217 70.0588C212.687 68.5884 213.853 66.8429 214.649 64.9218C215.445 63.0007 215.854 60.9417 215.854 58.8624C215.854 56.7831 215.445 54.7241 214.649 52.803C213.853 50.882 212.687 49.1364 211.217 47.6661C209.747 46.1957 208.001 45.0294 206.08 44.2336C204.159 43.4379 202.1 43.0283 200.021 43.0283C197.942 43.0283 195.883 43.4379 193.962 44.2336C192.04 45.0294 190.295 46.1957 188.825 47.6661C187.354 49.1364 186.188 50.882 185.393 52.803C184.597 54.7241 184.187 56.7831 184.188 58.8624Z" fill="#FFE500"/>
<path d="M200.021 43.0293C191.312 43.0293 184.188 50.1543 184.188 58.8626C184.188 67.571 191.312 74.696 200.021 74.696C208.729 74.696 215.854 67.571 215.854 58.8626C215.854 50.1543 208.729 43.0293 200.021 43.0293ZM200.021 72.321C192.025 72.321 185.612 65.8293 185.612 57.9126C185.612 49.9168 192.025 43.4251 200.021 43.4251C208.017 43.4251 214.508 49.9168 214.508 57.9126C214.508 65.8293 208.017 72.321 200.021 72.321Z" fill="#EBCB00"/>
<path d="M195.271 46.1958C195.271 46.3517 195.394 46.5062 195.632 46.6502C195.871 46.7943 196.221 46.9252 196.662 47.0355C197.103 47.1458 197.627 47.2332 198.203 47.2929C198.779 47.3526 199.397 47.3833 200.021 47.3833C200.645 47.3833 201.262 47.3526 201.839 47.2929C202.415 47.2332 202.939 47.1458 203.38 47.0355C203.821 46.9252 204.171 46.7943 204.409 46.6502C204.648 46.5062 204.771 46.3517 204.771 46.1958C204.771 45.8809 204.27 45.5788 203.38 45.3561C202.489 45.1334 201.281 45.0083 200.021 45.0083C198.761 45.0083 197.553 45.1334 196.662 45.3561C195.771 45.5788 195.271 45.8809 195.271 46.1958Z" fill="#FFF48C"/>
<path d="M214.192 65.9874C212.767 68.8374 210.471 71.2124 207.7 72.7165L206.829 70.6582L206.433 69.629C205.8 68.204 205.879 66.5415 206.592 64.9582C207.225 63.6124 208.333 62.5832 209.679 62.3457C211.104 62.029 212.529 62.5832 213.321 63.6915C213.558 64.0082 213.796 64.404 213.954 64.879L214.192 65.9874Z" fill="#EBCB00"/>
<path opacity="0.15" d="M187.354 77.7832C187.354 78.0981 188.689 78.4002 191.064 78.6229C193.44 78.8456 196.661 78.9707 200.021 78.9707C203.38 78.9707 206.602 78.8456 208.977 78.6229C211.353 78.4002 212.687 78.0981 212.687 77.7832C212.687 77.4683 211.353 77.1662 208.977 76.9435C206.602 76.7208 203.38 76.5957 200.021 76.5957C196.661 76.5957 193.44 76.7208 191.064 76.9435C188.689 77.1662 187.354 77.4683 187.354 77.7832Z" fill="#45413C"/>
<path d="M210.233 73.5085L207.542 67.1752C207.067 66.0669 207.067 64.6419 207.621 63.4544C208.096 62.346 209.046 61.5544 210.075 61.3169C211.579 61.0002 213.004 61.7919 213.479 63.3752L213.954 65.0377L215.537 64.3252C217.042 63.6127 218.625 64.1669 219.417 65.5127C219.971 66.4627 219.971 67.7294 219.496 68.7585C218.942 69.946 217.912 70.896 216.804 71.2919L210.233 73.5085Z" fill="#FF6242"/>
<path d="M208.729 64.325C210.233 64.0083 211.658 64.8 212.133 66.3833L212.608 68.0458L214.192 67.3333C215.617 66.7 217.2 67.175 217.992 68.5208C218.308 68.9958 218.388 69.6292 218.388 70.2625C218.783 69.8667 219.179 69.3917 219.417 68.8375C219.892 67.7292 219.892 66.5417 219.338 65.5917C218.546 64.2458 216.963 63.6917 215.538 64.4042L213.954 65.1167L213.558 63.375C213.083 61.8708 211.658 61 210.154 61.3167C209.046 61.5542 208.175 62.3458 207.7 63.4542C207.463 64.0083 207.304 64.5625 207.304 65.1958C207.621 64.8 208.175 64.4833 208.729 64.325Z" fill="#FF866E"/>
<path d="M188.542 62.8208C188.542 63.1357 188.75 63.4378 189.121 63.6605C189.492 63.8832 189.996 64.0083 190.521 64.0083C191.046 64.0083 191.549 63.8832 191.92 63.6605C192.291 63.4378 192.5 63.1357 192.5 62.8208C192.5 62.5059 192.291 62.2038 191.92 61.9811C191.549 61.7584 191.046 61.6333 190.521 61.6333C189.996 61.6333 189.492 61.7584 189.121 61.9811C188.75 62.2038 188.542 62.5059 188.542 62.8208Z" fill="#FFAA54"/>
<path d="M190.521 58.071C190.521 58.2809 190.604 58.4823 190.753 58.6308C190.901 58.7792 191.103 58.8626 191.313 58.8626C191.523 58.8626 191.724 58.7792 191.872 58.6308C192.021 58.4823 192.104 58.2809 192.104 58.071C192.104 57.861 192.021 57.6596 191.872 57.5112C191.724 57.3627 191.523 57.2793 191.313 57.2793C191.103 57.2793 190.901 57.3627 190.753 57.5112C190.604 57.6596 190.521 57.861 190.521 58.071Z" fill="#45413C"/>
<rect x="36" y="223" width="195" height="12" rx="6" fill="#FBD689"/>
<rect x="36" y="223" width="132" height="12" rx="6" fill="#FCFBFB"/>
<path d="M207.39 203.387C206.852 203.081 206.266 202.929 205.633 202.929C204.817 202.929 204.163 203.25 203.671 203.893C203.183 204.531 202.939 205.358 202.939 206.374H202.98C203.486 205.599 204.236 205.212 205.229 205.212C206.118 205.212 206.822 205.517 207.342 206.128C207.866 206.734 208.128 207.525 208.128 208.5C208.128 209.566 207.788 210.448 207.109 211.146C206.43 211.838 205.562 212.185 204.505 212.185C203.293 212.185 202.363 211.747 201.716 210.872C201.073 209.997 200.752 208.799 200.752 207.276C200.752 205.485 201.169 204.032 202.003 202.915C202.841 201.794 204.006 201.233 205.496 201.233C206.298 201.233 206.929 201.329 207.39 201.521V203.387ZM203.015 208.521C203.015 209.067 203.151 209.532 203.425 209.915C203.698 210.298 204.058 210.489 204.505 210.489C204.956 210.489 205.312 210.314 205.571 209.963C205.831 209.612 205.961 209.172 205.961 208.644C205.961 207.454 205.471 206.859 204.491 206.859C204.049 206.859 203.691 207.017 203.418 207.331C203.149 207.646 203.015 208.042 203.015 208.521ZM209.229 209.149C209.229 208.534 209.406 207.987 209.762 207.509C210.117 207.03 210.632 206.679 211.307 206.456C210.769 206.187 210.352 205.845 210.056 205.431C209.764 205.016 209.618 204.556 209.618 204.05C209.618 203.521 209.762 203.043 210.049 202.614C210.34 202.181 210.746 201.844 211.266 201.603C211.785 201.356 212.366 201.233 213.009 201.233C213.656 201.233 214.242 201.354 214.766 201.596C215.29 201.833 215.698 202.168 215.989 202.601C216.281 203.029 216.427 203.503 216.427 204.022C216.427 204.515 216.265 204.973 215.941 205.396C215.622 205.82 215.192 206.155 214.649 206.401C215.31 206.629 215.825 206.982 216.194 207.461C216.563 207.935 216.748 208.491 216.748 209.129C216.748 210.027 216.399 210.758 215.702 211.323C215.005 211.888 214.1 212.171 212.988 212.171C211.876 212.171 210.972 211.888 210.274 211.323C209.577 210.758 209.229 210.034 209.229 209.149ZM211.437 208.951C211.437 209.443 211.578 209.838 211.86 210.134C212.143 210.43 212.521 210.578 212.995 210.578C213.451 210.578 213.825 210.43 214.116 210.134C214.408 209.838 214.554 209.443 214.554 208.951C214.554 208.491 214.406 208.108 214.109 207.803C213.813 207.493 213.442 207.338 212.995 207.338C212.535 207.338 212.159 207.493 211.867 207.803C211.58 208.108 211.437 208.491 211.437 208.951ZM211.765 204.275C211.765 204.663 211.883 204.995 212.12 205.273C212.362 205.547 212.665 205.684 213.029 205.684C213.38 205.684 213.679 205.549 213.925 205.28C214.171 205.011 214.294 204.676 214.294 204.275C214.294 203.874 214.173 203.535 213.932 203.257C213.695 202.979 213.394 202.84 213.029 202.84C212.656 202.84 212.35 202.979 212.113 203.257C211.881 203.535 211.765 203.874 211.765 204.275ZM217.931 204.132C217.931 203.266 218.17 202.573 218.648 202.054C219.132 201.53 219.783 201.268 220.604 201.268C221.387 201.268 221.996 201.505 222.429 201.979C222.866 202.452 223.085 203.106 223.085 203.94C223.085 204.797 222.843 205.483 222.36 205.998C221.877 206.513 221.232 206.771 220.426 206.771C219.669 206.771 219.063 206.529 218.607 206.046C218.156 205.563 217.931 204.925 217.931 204.132ZM219.435 204.057C219.435 205.036 219.795 205.526 220.515 205.526C221.248 205.526 221.615 205.016 221.615 203.995C221.615 203.006 221.264 202.512 220.562 202.512C219.811 202.512 219.435 203.027 219.435 204.057ZM228.082 201.411L221.198 212.007H219.482L226.353 201.411H228.082ZM224.493 209.505C224.493 208.63 224.737 207.935 225.225 207.42C225.712 206.9 226.362 206.641 227.173 206.641C227.957 206.641 228.565 206.873 228.998 207.338C229.436 207.803 229.654 208.457 229.654 209.3C229.654 210.166 229.41 210.858 228.923 211.378C228.435 211.893 227.79 212.15 226.988 212.15C226.236 212.15 225.632 211.909 225.177 211.426C224.721 210.938 224.493 210.298 224.493 209.505ZM225.99 209.43C225.99 210.414 226.353 210.906 227.077 210.906C227.806 210.906 228.171 210.396 228.171 209.375C228.171 208.896 228.073 208.53 227.877 208.274C227.686 208.015 227.428 207.885 227.104 207.885C226.362 207.885 225.99 208.4 225.99 209.43Z" fill="#FF852B"/>
<path d="M49.0099 160.406C50.8457 160.406 52.334 161.894 52.334 163.73V178.897C52.334 180.733 50.8457 182.221 49.0099 182.221C47.174 182.221 45.6857 180.733 45.6857 178.897V163.73C45.6856 161.894 47.1739 160.406 49.0099 160.406ZM66.7972 128.229C68.0949 129.527 68.0949 131.631 66.7972 132.929L52.4117 147.315C51.1137 148.613 49.0088 148.614 47.7104 147.316C46.412 146.018 46.4115 143.913 47.7095 142.615L62.0951 128.229C63.393 126.931 65.4978 126.93 66.7962 128.228L66.7972 128.229Z" fill="#FFB22A"/>
<path d="M77.8636 143.563C76.8164 144.84 74.9398 145.045 73.6418 144.024L62.135 132.48C61.1236 130.902 61.5831 128.803 63.1613 127.791C63.707 127.442 64.3414 127.255 64.9896 127.255C65.6377 127.254 66.2725 127.439 66.8188 127.788L78.3256 139.331C79.3443 140.634 79.1393 142.511 77.8636 143.563Z" fill="#FFB22A"/>
<path d="M100.265 116.734C101.562 118.027 101.123 120.557 99.2846 122.399L78.9088 142.738C77.0705 144.566 74.5275 145.013 73.2311 143.722C71.9346 142.43 72.3735 139.899 74.2117 138.057L94.5875 117.718C96.4257 115.878 98.9688 115.438 100.265 116.734Z" fill="#FFB22A"/>
<path d="M98.2109 115.747C100.047 115.747 101.535 117.235 101.535 119.071V127.382C101.535 129.218 100.047 130.706 98.2109 130.706C96.375 130.706 94.8867 129.218 94.8867 127.382V119.071C94.8867 117.235 96.375 115.747 98.2109 115.747ZM65.6308 149.966C67.4667 149.966 68.955 151.454 68.955 153.29V178.897C68.955 180.733 67.4667 182.221 65.6308 182.221C63.7949 182.221 62.3066 180.733 62.3066 178.897V153.29C62.3066 151.454 63.7949 149.966 65.6308 149.966ZM82.2518 156.146C84.0878 156.146 85.576 157.634 85.576 159.47V178.897C85.576 180.733 84.0877 182.221 82.2518 182.221C80.4159 182.221 78.9276 180.733 78.9276 178.897V159.47C78.9276 157.634 80.4159 156.146 82.2518 156.146ZM98.8729 140.668C100.709 140.668 102.197 142.157 102.197 143.993V178.897C102.197 180.733 100.709 182.221 98.8729 182.221C97.0369 182.221 95.5487 180.733 95.5487 178.897V143.993C95.5487 142.157 97.037 140.668 98.8729 140.668Z" fill="#FFB22A"/>
<path d="M101.535 119.064C101.535 120.9 100.047 122.389 98.2109 122.389H89.9004C88.0645 122.389 86.5762 120.9 86.5762 119.064C86.5762 117.228 88.0645 115.74 89.9004 115.74H98.2109C100.047 115.74 101.535 117.228 101.535 119.064Z" fill="#FFB22A"/>
</g>
<defs>
<filter id="filter0_d_128_367" x="0" y="0" width="268" height="268" filterUnits="userSpaceOnUse" color-interpolation-filters="sRGB">
<feFlood flood-opacity="0" result="BackgroundImageFix"/>
<feColorMatrix in="SourceAlpha" type="matrix" values="0 0 0 0 0 0 0 0 0 0 0 0 0 0 0 0 0 0 127 0" result="hardAlpha"/>
<feOffset dy="4"/>
<feGaussianBlur stdDeviation="2"/>
<feComposite in2="hardAlpha" operator="out"/>
<feColorMatrix type="matrix" values="0 0 0 0 0 0 0 0 0 0 0 0 0 0 0 0 0 0 0.25 0"/>
<feBlend mode="normal" in2="BackgroundImageFix" result="effect1_dropShadow_128_367"/>
<feBlend mode="normal" in="SourceGraphic" in2="effect1_dropShadow_128_367" result="shape"/>
</filter>
</defs>
</svg>
