<svg width="168" height="268" viewBox="0 0 168 268" fill="none" xmlns="http://www.w3.org/2000/svg">
<g clip-path="url(#clip0_128_400)" filter="url(#filter0_d_128_400)">
<rect width="160" height="260" transform="translate(4)" fill="#F0FCF9"/>
<rect x="4" width="160" height="260" rx="12" fill="#E0FFF7"/>
<path d="M113.631 151.648C115.193 150.086 115.204 147.538 113.509 146.121C108.561 141.982 102.768 138.946 96.5156 137.235C88.9741 135.172 81.0251 135.109 73.452 137.053C65.8788 138.996 58.9427 142.88 53.3273 148.32C47.7119 153.761 43.6109 160.57 41.4283 168.078C39.2458 175.586 39.0571 183.533 40.8809 191.136C42.7046 198.739 46.4779 205.736 51.8288 211.437C57.1797 217.137 63.9236 221.346 71.396 223.647C77.5908 225.554 84.109 226.097 90.5047 225.256C92.695 224.968 94.0522 222.811 93.5709 220.655L85.1184 182.785C84.8202 181.449 85.226 180.053 86.194 179.085L113.631 151.648Z" fill="#9DD1C4"/>
<path d="M112.679 158.287C114.242 156.724 116.794 156.712 118.179 158.433C121.496 162.554 123.906 167.348 125.229 172.502C126.885 178.951 126.779 185.726 124.921 192.12C123.063 198.514 119.523 204.292 114.669 208.85C110.79 212.492 106.187 215.249 101.178 216.95C99.0864 217.661 96.9381 216.283 96.4562 214.127L89.6982 183.894C89.3994 182.557 89.8051 181.161 90.7734 180.193L112.679 158.287Z" fill="#C9EFE6"/>
<path d="M28.3027 73.374H32.9902C32.6615 72.749 32.4043 72.2933 32.2188 72.0068L32.9707 71.6553C33.153 71.9352 33.4264 72.391 33.791 73.0225L33.0879 73.374H37.6777V74.0967H35.876C35.5277 75.9554 34.779 77.4495 33.6299 78.5791C34.4958 79.2106 35.8711 79.777 37.7559 80.2783C37.4564 80.6169 37.2285 80.9001 37.0723 81.1279C35.2363 80.4932 33.8805 79.8291 33.0049 79.1357C32.126 79.8193 30.7214 80.5094 28.791 81.2061C28.6217 80.9782 28.4264 80.7243 28.2051 80.4443C30.0671 79.8844 31.4684 79.2611 32.4092 78.5742C31.221 77.3047 30.4658 75.8122 30.1436 74.0967H28.3027V73.374ZM35.041 74.0967H30.9248C31.2178 75.6982 31.9176 77.0215 33.0244 78.0664C34.0824 77.0833 34.7546 75.7601 35.041 74.0967ZM40.8809 77.7295C41.7337 77.3324 42.5312 76.875 43.2734 76.3574V71.8799H44.1133V75.7275C45.1094 74.9235 45.9948 73.9958 46.7695 72.9443L47.4824 73.4619C46.5352 74.7217 45.4121 75.8236 44.1133 76.7676V79.5264C44.1133 79.9691 44.3477 80.1904 44.8164 80.1904H46.0566C46.4993 80.1904 46.7565 79.9788 46.8281 79.5557C46.9193 79.113 46.9779 78.6019 47.0039 78.0225C47.2773 78.1266 47.5638 78.221 47.8633 78.3057C47.8112 78.8525 47.7428 79.3538 47.6582 79.8096C47.5345 80.5583 47.0658 80.9326 46.252 80.9326H44.6016C43.7161 80.9326 43.2734 80.4964 43.2734 79.624V77.3389C42.6647 77.7295 42.0234 78.0876 41.3496 78.4131C41.2129 78.1982 41.0566 77.9704 40.8809 77.7295ZM38.1367 76.5283C39.2695 75.0244 40.1029 73.4261 40.6367 71.7334L41.4863 71.9775C41.1771 72.7848 40.8418 73.5449 40.4805 74.2578V81.2451H39.6602V75.7275C39.2988 76.3135 38.9147 76.8636 38.5078 77.3779C38.3971 77.098 38.2734 76.8148 38.1367 76.5283ZM56.877 78.9746C56.1315 79.7396 55.2249 80.1221 54.1572 80.1221C53.363 80.1221 52.7314 79.9284 52.2627 79.541C51.7972 79.1504 51.5645 78.6133 51.5645 77.9297C51.5645 76.901 52.1504 76.1344 53.3223 75.6299C52.7363 75.1839 52.4434 74.6549 52.4434 74.043C52.4434 73.5156 52.6273 73.0957 52.9951 72.7832C53.363 72.4674 53.8464 72.3096 54.4453 72.3096C55.0085 72.3096 55.4642 72.4593 55.8125 72.7588C56.1641 73.055 56.3398 73.4424 56.3398 73.9209C56.3398 74.7021 55.8613 75.2881 54.9043 75.6787C55.6302 75.9587 56.3187 76.5951 56.9697 77.5879C57.5394 76.8034 57.8242 75.8789 57.8242 74.8145C57.8242 74.5605 57.7917 74.318 57.7266 74.0869H58.6348C58.6836 74.2822 58.708 74.5166 58.708 74.79C58.708 75.3597 58.5957 75.957 58.3711 76.582C58.1497 77.2038 57.8405 77.7799 57.4434 78.3105C57.7135 78.6784 57.9398 78.9307 58.1221 79.0674C58.3076 79.2008 58.5192 79.2676 58.7568 79.2676C58.9521 79.2676 59.1833 79.2155 59.4502 79.1113V79.9658C59.1768 80.07 58.8936 80.1221 58.6006 80.1221C58.2946 80.1221 58.0179 80.0505 57.7705 79.9072C57.5264 79.764 57.2285 79.4531 56.877 78.9746ZM54.1816 75.2783C55.0247 74.9886 55.4463 74.5622 55.4463 73.999C55.4463 73.7093 55.3503 73.4798 55.1582 73.3105C54.9661 73.138 54.7285 73.0518 54.4453 73.0518C54.1068 73.0518 53.8382 73.1445 53.6396 73.3301C53.4411 73.5124 53.3418 73.7516 53.3418 74.0479C53.3418 74.5622 53.6217 74.9723 54.1816 75.2783ZM56.4277 78.291C56.0241 77.6595 55.6514 77.1842 55.3096 76.8652C54.9678 76.543 54.5348 76.2826 54.0107 76.084C53.4801 76.2988 53.1009 76.5495 52.873 76.8359C52.6452 77.1191 52.5312 77.4723 52.5312 77.8955C52.5312 78.335 52.6826 78.6816 52.9854 78.9355C53.2881 79.1862 53.682 79.3115 54.167 79.3115C55.0589 79.3115 55.8125 78.9714 56.4277 78.291ZM62.9219 73.1982H64.8115C64.6195 72.8044 64.3932 72.3975 64.1328 71.9775L64.7285 71.6357C65.0605 72.124 65.3145 72.5309 65.4902 72.8564L64.875 73.1982H66.8672V73.8818H64.5771C64.5739 74.3896 64.5658 74.8617 64.5527 75.2979H66.4473C66.3952 77.0296 66.3398 78.488 66.2812 79.6729C66.2357 80.5583 65.8223 81.001 65.041 81.001C64.8717 81.001 64.5723 80.9945 64.1426 80.9814C64.1035 80.708 64.0482 80.4476 63.9766 80.2002C64.3346 80.2458 64.6536 80.2686 64.9336 80.2686C65.3177 80.2686 65.5293 80.0244 65.5684 79.5361C65.627 78.6768 65.6758 77.4919 65.7148 75.9814H64.5332C64.5072 78.4359 64.0677 80.2002 63.2148 81.2744C63.0716 81.0531 62.9186 80.835 62.7559 80.6201C63.2507 79.8258 63.5501 79.0251 63.6543 78.2178C63.7812 77.4626 63.8512 76.0173 63.8643 73.8818H62.9219V73.1982ZM71.877 76.2158L72.3164 76.8311C71.7923 77.1436 71.1592 77.4935 70.417 77.8809C70.9053 78.9258 71.6198 79.6924 72.5605 80.1807C72.3587 80.4215 72.1764 80.6657 72.0137 80.9131C70.347 79.8291 69.3656 78.0143 69.0693 75.4688C68.7471 75.5143 68.4232 75.555 68.0977 75.5908V80.0146C68.5469 79.8454 69.1263 79.6045 69.8359 79.292C69.8359 79.5654 69.849 79.8128 69.875 80.0342C69.1914 80.3076 68.5729 80.5648 68.0195 80.8057C67.8112 80.9098 67.6387 81.027 67.502 81.1572L67.043 80.542C67.2643 80.3727 67.375 80.0993 67.375 79.7217V74.9561C68.5794 74.8844 69.9954 74.6533 71.623 74.2627L71.9941 74.9756C71.2617 75.1253 70.5098 75.2588 69.7383 75.376C69.8294 76.0824 69.9759 76.7204 70.1777 77.29C70.7897 76.9385 71.3561 76.5804 71.877 76.2158ZM66.3789 74.7998C67.082 73.8688 67.6517 72.8141 68.0879 71.6357L68.8203 71.8896C68.6966 72.1859 68.568 72.4756 68.4346 72.7588H72.248V73.4424H68.0928C67.7607 74.0706 67.3978 74.6631 67.0039 75.2197C66.8346 75.083 66.6263 74.943 66.3789 74.7998ZM76.3105 75.3467H82.4922V76.0791H80.5977V79.8975C80.5977 80.7048 80.1908 81.1084 79.377 81.1084C78.8301 81.1084 78.2734 81.1051 77.707 81.0986C77.668 80.8382 77.6191 80.5452 77.5605 80.2197C78.0684 80.2718 78.5794 80.2979 79.0938 80.2979C79.543 80.2979 79.7676 80.0765 79.7676 79.6338V76.0791H76.3105V75.3467ZM72.7754 77.5342C73.7845 76.7074 74.7025 75.5452 75.5293 74.0479L76.2129 74.4678C75.8776 75.0472 75.5228 75.5892 75.1484 76.0938V81.2646H74.3379V77.0996C73.9473 77.5423 73.5404 77.9508 73.1172 78.3252C73.013 78.0518 72.8991 77.7881 72.7754 77.5342ZM76.877 72.3975H81.9453V73.1299H76.877V72.3975ZM72.8242 74.4385C73.8594 73.6377 74.6927 72.7067 75.3242 71.6455L76.0273 72.0752C75.2721 73.234 74.3346 74.2725 73.2148 75.1904C73.0977 74.943 72.9674 74.6924 72.8242 74.4385Z" fill="#202020"/>
<g clip-path="url(#clip1_128_400)">
<path d="M51.9813 31.0237L48.5561 51.5774C48.5115 51.8351 48.3663 52.0366 48.1273 52.1795C48.0031 52.2475 47.8626 52.2873 47.7126 52.2873C47.6142 52.2873 47.5065 52.2639 47.3917 52.2194L41.8438 49.9515C41.5393 49.8273 41.1902 49.9163 40.9817 50.1694L38.093 53.693C37.9313 53.8992 37.7111 53.9999 37.437 53.9999C37.3222 53.9999 37.2238 53.9812 37.1394 53.946C36.9707 53.8828 36.8349 53.782 36.7318 53.6321C36.6287 53.4845 36.5748 53.3228 36.5748 53.1424V49.0097C36.5748 48.6629 36.6943 48.3302 36.9122 48.0608L48.1367 34.3014L34.0071 46.531C33.8993 46.6223 33.7493 46.6481 33.6205 46.5942L28.5482 44.5161C28.2179 44.3919 28.0375 44.1483 28.0141 43.7781C27.9953 43.422 28.1383 43.1573 28.4428 42.9862L50.7091 30.1405C50.845 30.0585 50.9856 30.021 51.1379 30.021C51.3183 30.021 51.4799 30.0725 51.6228 30.1709C51.9204 30.3818 52.0352 30.67 51.9813 31.0237Z" fill="#59887C"/>
</g>
<circle cx="134" cy="42" r="14" fill="#D0F1E9"/>
<circle cx="134" cy="42" r="14" fill="#D0F1E9"/>
<path d="M129.223 40.0781C128.915 39.9036 128.581 39.8164 128.219 39.8164C127.753 39.8164 127.379 40 127.098 40.3672C126.819 40.7318 126.68 41.2044 126.68 41.7852H126.703C126.992 41.3424 127.421 41.1211 127.988 41.1211C128.496 41.1211 128.898 41.2956 129.195 41.6445C129.495 41.9909 129.645 42.4427 129.645 43C129.645 43.6094 129.451 44.1133 129.062 44.5117C128.674 44.9076 128.178 45.1055 127.574 45.1055C126.882 45.1055 126.35 44.8555 125.98 44.3555C125.613 43.8555 125.43 43.1706 125.43 42.3008C125.43 41.2773 125.668 40.4466 126.145 39.8086C126.624 39.168 127.289 38.8477 128.141 38.8477C128.599 38.8477 128.96 38.9023 129.223 39.0117V40.0781ZM126.723 43.0117C126.723 43.3242 126.801 43.5898 126.957 43.8086C127.113 44.0273 127.319 44.1367 127.574 44.1367C127.832 44.1367 128.035 44.0365 128.184 43.8359C128.332 43.6354 128.406 43.3841 128.406 43.082C128.406 42.4023 128.126 42.0625 127.566 42.0625C127.314 42.0625 127.109 42.1523 126.953 42.332C126.799 42.5117 126.723 42.7383 126.723 43.0117ZM130.273 43.3711C130.273 43.0195 130.375 42.707 130.578 42.4336C130.781 42.1602 131.076 41.9596 131.461 41.832C131.154 41.6784 130.915 41.4831 130.746 41.2461C130.579 41.0091 130.496 40.7461 130.496 40.457C130.496 40.1549 130.578 39.8815 130.742 39.6367C130.909 39.3893 131.141 39.1966 131.438 39.0586C131.734 38.918 132.066 38.8477 132.434 38.8477C132.803 38.8477 133.138 38.9167 133.438 39.0547C133.737 39.1901 133.97 39.3815 134.137 39.6289C134.303 39.8737 134.387 40.1445 134.387 40.4414C134.387 40.7227 134.294 40.9844 134.109 41.2266C133.927 41.4688 133.681 41.6602 133.371 41.8008C133.749 41.931 134.043 42.1328 134.254 42.4062C134.465 42.6771 134.57 42.9948 134.57 43.3594C134.57 43.8724 134.371 44.2904 133.973 44.6133C133.574 44.9362 133.057 45.0977 132.422 45.0977C131.786 45.0977 131.27 44.9362 130.871 44.6133C130.473 44.2904 130.273 43.8763 130.273 43.3711ZM131.535 43.2578C131.535 43.5391 131.616 43.7643 131.777 43.9336C131.939 44.1029 132.155 44.1875 132.426 44.1875C132.686 44.1875 132.9 44.1029 133.066 43.9336C133.233 43.7643 133.316 43.5391 133.316 43.2578C133.316 42.9948 133.232 42.776 133.062 42.6016C132.893 42.4245 132.681 42.3359 132.426 42.3359C132.163 42.3359 131.948 42.4245 131.781 42.6016C131.617 42.776 131.535 42.9948 131.535 43.2578ZM131.723 40.5859C131.723 40.8073 131.79 40.9974 131.926 41.1562C132.064 41.3125 132.237 41.3906 132.445 41.3906C132.646 41.3906 132.816 41.3138 132.957 41.1602C133.098 41.0065 133.168 40.8151 133.168 40.5859C133.168 40.3568 133.099 40.1628 132.961 40.0039C132.826 39.8451 132.654 39.7656 132.445 39.7656C132.232 39.7656 132.057 39.8451 131.922 40.0039C131.789 40.1628 131.723 40.3568 131.723 40.5859ZM135.246 40.5039C135.246 40.0091 135.383 39.6133 135.656 39.3164C135.932 39.0169 136.305 38.8672 136.773 38.8672C137.221 38.8672 137.569 39.0026 137.816 39.2734C138.066 39.5443 138.191 39.918 138.191 40.3945C138.191 40.8841 138.053 41.276 137.777 41.5703C137.501 41.8646 137.133 42.0117 136.672 42.0117C136.24 42.0117 135.893 41.8737 135.633 41.5977C135.375 41.3216 135.246 40.957 135.246 40.5039ZM136.105 40.4609C136.105 41.0208 136.311 41.3008 136.723 41.3008C137.142 41.3008 137.352 41.0091 137.352 40.4258C137.352 39.8607 137.151 39.5781 136.75 39.5781C136.32 39.5781 136.105 39.8724 136.105 40.4609ZM141.047 38.9492L137.113 45.0039H136.133L140.059 38.9492H141.047ZM138.996 43.5742C138.996 43.0742 139.135 42.6771 139.414 42.3828C139.693 42.0859 140.064 41.9375 140.527 41.9375C140.975 41.9375 141.323 42.0703 141.57 42.3359C141.82 42.6016 141.945 42.9753 141.945 43.457C141.945 43.9518 141.806 44.3477 141.527 44.6445C141.249 44.9388 140.88 45.0859 140.422 45.0859C139.992 45.0859 139.647 44.9479 139.387 44.6719C139.126 44.3932 138.996 44.0273 138.996 43.5742ZM139.852 43.5312C139.852 44.0938 140.059 44.375 140.473 44.375C140.889 44.375 141.098 44.0833 141.098 43.5C141.098 43.2266 141.042 43.0169 140.93 42.8711C140.82 42.7227 140.673 42.6484 140.488 42.6484C140.064 42.6484 139.852 42.9427 139.852 43.5312Z" fill="#9DD1C4"/>
</g>
<defs>
<filter id="filter0_d_128_400" x="0" y="0" width="168" height="268" filterUnits="userSpaceOnUse" color-interpolation-filters="sRGB">
<feFlood flood-opacity="0" result="BackgroundImageFix"/>
<feColorMatrix in="SourceAlpha" type="matrix" values="0 0 0 0 0 0 0 0 0 0 0 0 0 0 0 0 0 0 127 0" result="hardAlpha"/>
<feOffset dy="4"/>
<feGaussianBlur stdDeviation="2"/>
<feComposite in2="hardAlpha" operator="out"/>
<feColorMatrix type="matrix" values="0 0 0 0 0 0 0 0 0 0 0 0 0 0 0 0 0 0 0.25 0"/>
<feBlend mode="normal" in2="BackgroundImageFix" result="effect1_dropShadow_128_400"/>
<feBlend mode="normal" in="SourceGraphic" in2="effect1_dropShadow_128_400" result="shape"/>
</filter>
<clipPath id="clip0_128_400">
<rect width="160" height="260" fill="white" transform="translate(4)"/>
</clipPath>
<clipPath id="clip1_128_400">
<rect width="24" height="24" fill="white" transform="translate(28 30)"/>
</clipPath>
</defs>
</svg>
