<svg width="168" height="268" viewBox="0 0 168 268" fill="none" xmlns="http://www.w3.org/2000/svg">
<g clip-path="url(#clip0_128_419)" filter="url(#filter0_d_128_419)">
<rect x="4" width="162" height="260" rx="12" fill="#FFEFEA"/>
<path d="M116.631 153.648C118.193 152.086 118.204 149.538 116.509 148.121C112.831 145.045 108.679 142.571 104.205 140.8C98.4894 138.537 92.3706 137.469 86.2261 137.662C80.0817 137.855 74.042 139.305 68.4796 141.922C62.9171 144.54 57.95 148.269 53.8846 152.881C49.8192 157.492 46.7418 162.887 44.8421 168.734C42.9424 174.581 42.2608 180.754 42.8393 186.875C43.4179 192.995 45.2442 198.932 48.2058 204.319C50.5238 208.535 53.4987 212.345 57.0112 215.608C58.6297 217.111 61.1564 216.782 62.5104 215.036L87.6396 182.64L116.631 153.648Z" fill="#FCCD72"/>
<path d="M114.04 162.118C115.602 160.556 118.154 160.544 119.539 162.265C124.584 168.531 127.484 176.299 127.739 184.411C128.036 193.863 124.721 203.073 118.467 210.166C112.214 217.259 103.492 221.703 94.0777 222.593C85.9971 223.357 77.9273 221.453 71.0781 217.233C69.1973 216.075 68.8893 213.541 70.2433 211.796L90.5788 185.579L114.04 162.118Z" fill="#FFE5B3"/>
<path d="M36.024 53.0002C36.7556 53.0002 42.8965 49.9897 42.8965 49.2821C42.8965 48.5745 38.1109 34.2056 38.1109 34.2056L41.8171 29.9597C41.8171 29.9597 42.6806 29.0122 40.9535 29.0122H31.1664C29.4393 29.0122 30.015 29.9597 30.015 29.9597L33.937 34.2176C33.937 34.2176 29.1634 48.4905 29.1634 49.294C29.1514 50.0737 35.3043 53.0002 36.024 53.0002ZM42.6447 44.2806L43.952 42.6374C44.1919 42.3016 44.2159 41.8458 43.988 41.4979L39.1424 34.4695L42.6447 44.2806H42.6447Z" fill="#B58271"/>
<path d="M24.9375 69.8291H27.3105C27.0859 69.5003 26.8418 69.1748 26.5781 68.8525L27.1738 68.4521C27.4863 68.8167 27.7695 69.1553 28.0234 69.4678L27.4961 69.8291H29.7129C30.0417 69.4059 30.3444 68.96 30.6211 68.4912L31.3633 68.9209C31.054 69.2887 30.7936 69.5915 30.582 69.8291H33.0137V74.9463C33.0137 75.7666 32.6393 76.18 31.8906 76.1865C31.487 76.193 31.0312 76.1898 30.5234 76.1768C30.4714 75.7992 30.4225 75.5257 30.377 75.3564C30.8913 75.4085 31.3145 75.4346 31.6465 75.4346C32.0697 75.4346 32.2812 75.2002 32.2812 74.7314V70.5029H25.6699V76.3037H24.9375V69.8291ZM27.0469 75.3369V72.1924H30.9629V74.8193H27.75V75.3369H27.0469ZM24.2246 67.7393H28.6826C28.5589 67.5081 28.4076 67.251 28.2285 66.9678L28.9805 66.626C29.1758 66.9613 29.3809 67.3324 29.5957 67.7393H33.8047V68.4326H24.2246V67.7393ZM30.2598 74.1943V72.8174H27.75V74.1943H30.2598ZM27.7988 70.6104L28.3262 71.1182C27.5645 71.7692 26.8516 72.3421 26.1875 72.8369C25.9922 72.57 25.8392 72.3779 25.7285 72.2607C26.4447 71.7855 27.1348 71.2354 27.7988 70.6104ZM29.5176 71.1475L29.9473 70.6104C30.9108 71.2158 31.64 71.7008 32.1348 72.0654L31.6465 72.6807C31.002 72.1598 30.2923 71.6488 29.5176 71.1475ZM34.1855 74.9268H37.3203V66.8604H38.1406V74.9268H39.8496V66.8604H40.6699V74.9268H43.834V75.6494H34.1855V74.9268ZM35.3184 68.7744C35.8522 70.0309 36.3698 71.3656 36.8711 72.7783L36.0703 73.1396C35.6341 71.766 35.1458 70.415 34.6055 69.0869L35.3184 68.7744ZM41.0215 72.8662C41.6725 71.486 42.2194 70.1514 42.6621 68.8623L43.4531 69.1748C42.8477 70.7308 42.2715 72.0687 41.7246 73.1885L41.0215 72.8662ZM52.877 73.9746C52.1315 74.7396 51.2249 75.1221 50.1572 75.1221C49.363 75.1221 48.7314 74.9284 48.2627 74.541C47.7972 74.1504 47.5645 73.6133 47.5645 72.9297C47.5645 71.901 48.1504 71.1344 49.3223 70.6299C48.7363 70.1839 48.4434 69.6549 48.4434 69.043C48.4434 68.5156 48.6273 68.0957 48.9951 67.7832C49.363 67.4674 49.8464 67.3096 50.4453 67.3096C51.0085 67.3096 51.4642 67.4593 51.8125 67.7588C52.1641 68.055 52.3398 68.4424 52.3398 68.9209C52.3398 69.7021 51.8613 70.2881 50.9043 70.6787C51.6302 70.9587 52.3187 71.5951 52.9697 72.5879C53.5394 71.8034 53.8242 70.8789 53.8242 69.8145C53.8242 69.5605 53.7917 69.318 53.7266 69.0869H54.6348C54.6836 69.2822 54.708 69.5166 54.708 69.79C54.708 70.3597 54.5957 70.957 54.3711 71.582C54.1497 72.2038 53.8405 72.7799 53.4434 73.3105C53.7135 73.6784 53.9398 73.9307 54.1221 74.0674C54.3076 74.2008 54.5192 74.2676 54.7568 74.2676C54.9521 74.2676 55.1833 74.2155 55.4502 74.1113V74.9658C55.1768 75.07 54.8936 75.1221 54.6006 75.1221C54.2946 75.1221 54.0179 75.0505 53.7705 74.9072C53.5264 74.764 53.2285 74.4531 52.877 73.9746ZM50.1816 70.2783C51.0247 69.9886 51.4463 69.5622 51.4463 68.999C51.4463 68.7093 51.3503 68.4798 51.1582 68.3105C50.9661 68.138 50.7285 68.0518 50.4453 68.0518C50.1068 68.0518 49.8382 68.1445 49.6396 68.3301C49.4411 68.5124 49.3418 68.7516 49.3418 69.0479C49.3418 69.5622 49.6217 69.9723 50.1816 70.2783ZM52.4277 73.291C52.0241 72.6595 51.6514 72.1842 51.3096 71.8652C50.9678 71.543 50.5348 71.2826 50.0107 71.084C49.4801 71.2988 49.1009 71.5495 48.873 71.8359C48.6452 72.1191 48.5312 72.4723 48.5312 72.8955C48.5312 73.335 48.6826 73.6816 48.9854 73.9355C49.2881 74.1862 49.682 74.3115 50.167 74.3115C51.0589 74.3115 51.8125 73.9714 52.4277 73.291ZM62.4082 66.8018L62.2812 67.0068C63.1081 67.7686 63.9023 68.54 64.6641 69.3213L64.127 69.9268C63.4303 69.152 62.6882 68.387 61.9004 67.6318C61.2624 68.641 60.6048 69.484 59.9277 70.1611H63.9414C63.9023 71.0661 63.8698 71.7008 63.8438 72.0654C63.8112 73.0355 63.3685 73.5205 62.5156 73.5205C62.1706 73.5205 61.7474 73.5107 61.2461 73.4912C61.207 73.2048 61.1615 72.9443 61.1094 72.71C61.5456 72.7816 61.9622 72.8206 62.3594 72.8271C62.8281 72.8337 63.0788 72.5374 63.1113 71.9385C63.1309 71.626 63.1504 71.2614 63.1699 70.8447H60.582V74.7607C60.582 75.1253 60.7773 75.3076 61.168 75.3076H62.7695C63.2839 75.3076 63.5736 75.1383 63.6387 74.7998C63.7168 74.4873 63.7754 74.0967 63.8145 73.6279C64.0684 73.7321 64.3255 73.8265 64.5859 73.9111C64.5208 74.3408 64.4395 74.738 64.3418 75.1025C64.179 75.708 63.7201 76.0107 62.9648 76.0107H61.0215C60.2207 76.0107 59.8203 75.6136 59.8203 74.8193V70.2783C59.612 70.4736 59.4069 70.6527 59.2051 70.8154C59.0098 70.4964 58.86 70.262 58.7559 70.1123C59.8236 69.2985 60.7415 68.195 61.5098 66.8018H62.4082ZM67.0859 66.8701H67.8672V74.9854C67.8672 75.7796 67.4733 76.18 66.6855 76.1865C66.4121 76.1865 65.901 76.1833 65.1523 76.1768C65.1198 75.8773 65.0677 75.5811 64.9961 75.2881C65.6862 75.3467 66.1712 75.376 66.4512 75.376C66.8743 75.376 67.0859 75.1676 67.0859 74.751V66.8701ZM65.7969 73.7549H65.0449V67.7393H65.7969V73.7549ZM68.8047 74.9268H71.9395V66.8604H72.7598V74.9268H74.4688V66.8604H75.2891V74.9268H78.4531V75.6494H68.8047V74.9268ZM69.9375 68.7744C70.4714 70.0309 70.9889 71.3656 71.4902 72.7783L70.6895 73.1396C70.2533 71.766 69.765 70.415 69.2246 69.0869L69.9375 68.7744ZM75.6406 72.8662C76.2917 71.486 76.8385 70.1514 77.2812 68.8623L78.0723 69.1748C77.4668 70.7308 76.8906 72.0687 76.3438 73.1885L75.6406 72.8662Z" fill="#202020"/>
<circle cx="134" cy="44" r="14" fill="#F4DDD6"/>
<path d="M125.676 46.8438V45.7539C126.095 46.0091 126.542 46.1367 127.016 46.1367C127.372 46.1367 127.651 46.0495 127.852 45.875C128.055 45.6979 128.156 45.4596 128.156 45.1602C128.156 44.5326 127.727 44.2188 126.867 44.2188C126.549 44.2188 126.184 44.2422 125.77 44.2891L125.996 40.9492H129.199V41.9883H127.016L126.93 43.2617C127.146 43.2435 127.345 43.2344 127.527 43.2344C128.118 43.2344 128.585 43.3958 128.926 43.7188C129.27 44.0417 129.441 44.4792 129.441 45.0312C129.441 45.6406 129.234 46.1393 128.82 46.5273C128.406 46.9128 127.844 47.1055 127.133 47.1055C126.557 47.1055 126.072 47.0182 125.676 46.8438ZM131.812 45.9492H134.379V47H130.355V46.5508C130.355 46.2357 130.413 45.9479 130.527 45.6875C130.645 45.4271 130.805 45.1849 131.008 44.9609C131.211 44.7344 131.526 44.4701 131.953 44.168C132.344 43.8763 132.617 43.6185 132.773 43.3945C132.93 43.168 133.008 42.9284 133.008 42.6758C133.008 42.1315 132.711 41.8594 132.117 41.8594C131.596 41.8594 131.099 42.0677 130.625 42.4844V41.3594C131.154 41.0182 131.747 40.8477 132.406 40.8477C133.01 40.8477 133.488 41.0026 133.84 41.3125C134.191 41.6198 134.367 42.0443 134.367 42.5859C134.367 42.888 134.316 43.1615 134.215 43.4062C134.113 43.6484 133.966 43.8763 133.773 44.0898C133.581 44.3034 133.272 44.5599 132.848 44.8594C132.439 45.151 132.164 45.3763 132.023 45.5352C131.883 45.694 131.812 45.832 131.812 45.9492ZM135.246 42.5039C135.246 42.0091 135.383 41.6133 135.656 41.3164C135.932 41.0169 136.305 40.8672 136.773 40.8672C137.221 40.8672 137.569 41.0026 137.816 41.2734C138.066 41.5443 138.191 41.918 138.191 42.3945C138.191 42.8841 138.053 43.276 137.777 43.5703C137.501 43.8646 137.133 44.0117 136.672 44.0117C136.24 44.0117 135.893 43.8737 135.633 43.5977C135.375 43.3216 135.246 42.957 135.246 42.5039ZM136.105 42.4609C136.105 43.0208 136.311 43.3008 136.723 43.3008C137.142 43.3008 137.352 43.0091 137.352 42.4258C137.352 41.8607 137.151 41.5781 136.75 41.5781C136.32 41.5781 136.105 41.8724 136.105 42.4609ZM141.047 40.9492L137.113 47.0039H136.133L140.059 40.9492H141.047ZM138.996 45.5742C138.996 45.0742 139.135 44.6771 139.414 44.3828C139.693 44.0859 140.064 43.9375 140.527 43.9375C140.975 43.9375 141.323 44.0703 141.57 44.3359C141.82 44.6016 141.945 44.9753 141.945 45.457C141.945 45.9518 141.806 46.3477 141.527 46.6445C141.249 46.9388 140.88 47.0859 140.422 47.0859C139.992 47.0859 139.647 46.9479 139.387 46.6719C139.126 46.3932 138.996 46.0273 138.996 45.5742ZM139.852 45.5312C139.852 46.0938 140.059 46.375 140.473 46.375C140.889 46.375 141.098 46.0833 141.098 45.5C141.098 45.2266 141.042 45.0169 140.93 44.8711C140.82 44.7227 140.673 44.6484 140.488 44.6484C140.064 44.6484 139.852 44.9427 139.852 45.5312Z" fill="#D6AA9D"/>
</g>
<defs>
<filter id="filter0_d_128_419" x="0" y="0" width="168" height="268" filterUnits="userSpaceOnUse" color-interpolation-filters="sRGB">
<feFlood flood-opacity="0" result="BackgroundImageFix"/>
<feColorMatrix in="SourceAlpha" type="matrix" values="0 0 0 0 0 0 0 0 0 0 0 0 0 0 0 0 0 0 127 0" result="hardAlpha"/>
<feOffset dy="4"/>
<feGaussianBlur stdDeviation="2"/>
<feComposite in2="hardAlpha" operator="out"/>
<feColorMatrix type="matrix" values="0 0 0 0 0 0 0 0 0 0 0 0 0 0 0 0 0 0 0.25 0"/>
<feBlend mode="normal" in2="BackgroundImageFix" result="effect1_dropShadow_128_419"/>
<feBlend mode="normal" in="SourceGraphic" in2="effect1_dropShadow_128_419" result="shape"/>
</filter>
<clipPath id="clip0_128_419">
<rect width="160" height="260" fill="white" transform="translate(4)"/>
</clipPath>
</defs>
</svg>
