<svg width="168" height="268" viewBox="0 0 168 268" fill="none" xmlns="http://www.w3.org/2000/svg">
<g clip-path="url(#clip0_128_410)" filter="url(#filter0_d_128_410)">
<rect x="4" width="162" height="260" rx="12" fill="#FFEEFF"/>
<path d="M104.971 219.978C106.076 221.891 108.534 222.561 110.342 221.291C114.652 218.263 118.405 214.495 121.423 210.153C125.203 204.714 127.736 198.507 128.841 191.976C129.946 185.444 129.595 178.75 127.813 172.37C126.032 165.99 122.864 160.082 118.536 155.067C114.208 150.053 108.826 146.056 102.774 143.362C96.7229 140.667 90.1513 139.342 83.5287 139.481C76.9061 139.62 70.3958 141.219 64.4626 144.164C59.7262 146.515 55.4507 149.678 51.8255 153.499C50.3051 155.102 50.6084 157.632 52.3397 159.004L83.8732 183.997C84.2682 184.31 84.6006 184.695 84.8527 185.132L104.971 219.978Z" fill="#F2C0F2"/>
<path d="M97.2018 216.249C98.3064 218.162 97.6575 220.63 95.6368 221.523C89.0012 224.455 81.6223 225.393 74.4121 224.174C65.8816 222.731 58.1213 218.358 52.4681 211.809C46.8149 205.259 43.6228 196.944 43.4416 188.294C43.2885 180.983 45.2945 173.82 49.1641 167.684C50.3424 165.815 52.879 165.534 54.6103 166.906L80.0144 187.041C80.4095 187.355 80.7418 187.74 80.9939 188.176L97.2018 216.249Z" fill="#FFD9FF"/>
<path d="M27.6367 76.9248C28.2617 77.7777 28.9355 78.7575 29.6582 79.8643C29.3978 80.014 29.1439 80.1637 28.8965 80.3135C28.7142 80.0107 28.5352 79.7178 28.3594 79.4346C26.224 79.6104 24.5508 79.7568 23.3398 79.874L22.9785 79.0244C23.3887 78.8421 23.7891 78.4613 24.1797 77.8818C24.6094 77.2699 25.0081 76.6253 25.376 75.9482H22.8125V75.2451H25.8789V73.1748H23.291V72.4717H25.8789V70.6846H26.6602V72.4717H29.3652V73.1748H26.6602V75.2451H29.8242V75.9482H26.3574C25.6315 77.1429 24.9219 78.1748 24.2285 79.0439C25.4688 78.9854 26.709 78.8975 27.9492 78.7803C27.6139 78.2562 27.2949 77.7744 26.9922 77.335L27.6367 76.9248ZM21.582 76.1436C21.8229 76.2477 22.0801 76.3551 22.3535 76.4658C21.8913 77.8525 21.4876 79.1058 21.1426 80.2256L20.3027 79.9424C20.7324 78.7965 21.1589 77.5303 21.582 76.1436ZM20.625 73.3408C21.1133 73.6859 21.6862 74.1286 22.3438 74.6689C22.1029 74.9424 21.9141 75.154 21.7773 75.3037C21.0417 74.6462 20.4948 74.1807 20.1367 73.9072L20.625 73.3408ZM21.0059 70.8115C21.5267 71.2282 22.0866 71.7035 22.6855 72.2373C22.4642 72.4652 22.2721 72.667 22.1094 72.8428C21.5104 72.2503 20.9766 71.7523 20.5078 71.3486L21.0059 70.8115ZM33.5742 74.835H35.752V73.917H33.2227V73.292H35.752V72.3838H33.6523V71.7588H35.752V70.7334H36.4844V71.7588H38.9062V73.292H39.8633V73.917H38.9062V75.8213H38.1836V75.46H36.4844V76.4463H39.2188V77.0713H36.4844V77.9893H39.6973V78.6143H36.4844V80.2939H35.752V78.6143H32.832V77.9893H35.752V77.0713H33.3789V76.4463H35.752V75.46H33.5742V74.835ZM30.127 76.4463C30.9277 75.639 31.6927 74.5745 32.4219 73.2529L33.0859 73.6045C32.793 74.1156 32.4967 74.5957 32.1973 75.0449V80.2939H31.4746V76.0508C31.1426 76.4805 30.8073 76.8727 30.4688 77.2275C30.3646 76.9411 30.2507 76.6807 30.127 76.4463ZM30.166 73.3994C31.071 72.6702 31.8392 71.7555 32.4707 70.6553L33.1543 71.0459C32.4707 72.1396 31.6081 73.1585 30.5664 74.1025C30.4557 73.8617 30.3223 73.6273 30.166 73.3994ZM36.4844 74.835H38.1836V73.917H36.4844V74.835ZM38.1836 72.3838H36.4844V73.292H38.1836V72.3838ZM48.877 77.9746C48.1315 78.7396 47.2249 79.1221 46.1572 79.1221C45.363 79.1221 44.7314 78.9284 44.2627 78.541C43.7972 78.1504 43.5645 77.6133 43.5645 76.9297C43.5645 75.901 44.1504 75.1344 45.3223 74.6299C44.7363 74.1839 44.4434 73.6549 44.4434 73.043C44.4434 72.5156 44.6273 72.0957 44.9951 71.7832C45.363 71.4674 45.8464 71.3096 46.4453 71.3096C47.0085 71.3096 47.4642 71.4593 47.8125 71.7588C48.1641 72.055 48.3398 72.4424 48.3398 72.9209C48.3398 73.7021 47.8613 74.2881 46.9043 74.6787C47.6302 74.9587 48.3187 75.5951 48.9697 76.5879C49.5394 75.8034 49.8242 74.8789 49.8242 73.8145C49.8242 73.5605 49.7917 73.318 49.7266 73.0869H50.6348C50.6836 73.2822 50.708 73.5166 50.708 73.79C50.708 74.3597 50.5957 74.957 50.3711 75.582C50.1497 76.2038 49.8405 76.7799 49.4434 77.3105C49.7135 77.6784 49.9398 77.9307 50.1221 78.0674C50.3076 78.2008 50.5192 78.2676 50.7568 78.2676C50.9521 78.2676 51.1833 78.2155 51.4502 78.1113V78.9658C51.1768 79.07 50.8936 79.1221 50.6006 79.1221C50.2946 79.1221 50.0179 79.0505 49.7705 78.9072C49.5264 78.764 49.2285 78.4531 48.877 77.9746ZM46.1816 74.2783C47.0247 73.9886 47.4463 73.5622 47.4463 72.999C47.4463 72.7093 47.3503 72.4798 47.1582 72.3105C46.9661 72.138 46.7285 72.0518 46.4453 72.0518C46.1068 72.0518 45.8382 72.1445 45.6396 72.3301C45.4411 72.5124 45.3418 72.7516 45.3418 73.0479C45.3418 73.5622 45.6217 73.9723 46.1816 74.2783ZM48.4277 77.291C48.0241 76.6595 47.6514 76.1842 47.3096 75.8652C46.9678 75.543 46.5348 75.2826 46.0107 75.084C45.4801 75.2988 45.1009 75.5495 44.873 75.8359C44.6452 76.1191 44.5312 76.4723 44.5312 76.8955C44.5312 77.335 44.6826 77.6816 44.9854 77.9355C45.2881 78.1862 45.682 78.3115 46.167 78.3115C47.0589 78.3115 47.8125 77.9714 48.4277 77.291ZM58.2617 72.1006V71.3682H63.8086V72.0811C63.5026 74.3467 62.8125 76.1729 61.7383 77.5596C62.4414 78.2692 63.3724 78.8551 64.5312 79.3174C64.2513 79.6234 64.0332 79.8936 63.877 80.1279C62.7572 79.5485 61.8652 78.904 61.2012 78.1943C60.459 78.9691 59.4238 79.6917 58.0957 80.3623C57.9525 80.1279 57.7702 79.8805 57.5488 79.6201C58.9225 78.9756 59.9707 78.292 60.6934 77.5693C59.7103 76.3324 59.1016 74.5094 58.8672 72.1006H58.2617ZM54.7168 76.8955C55.3809 75.8799 55.8789 74.7438 56.2109 73.4873H54.8145V72.8037H56.3379V70.7334H57.0801V72.8037H58.457V73.4873H57.0801V74.7764L57.5 74.3857C58.0859 74.9391 58.5579 75.4307 58.916 75.8604L58.3301 76.4072C57.8939 75.8538 57.4772 75.3688 57.0801 74.9521V80.333H56.3379V74.9814C55.9863 76.0752 55.5566 76.9997 55.0488 77.7549C54.9577 77.4749 54.847 77.1885 54.7168 76.8955ZM62.9785 72.1006H59.6484C59.8438 74.2035 60.3678 75.8213 61.2207 76.9541C62.1191 75.7497 62.7051 74.1318 62.9785 72.1006ZM64.7949 79.1611H66.2109V75.8799H73.0664V79.1611H74.4141V79.8447H64.7949V79.1611ZM65.0293 72.5693H70.3564C70.9326 72.0127 71.4909 71.3779 72.0312 70.665L72.7441 71.1143C72.3014 71.6286 71.849 72.1136 71.3867 72.5693H74.2676V73.2529H65.0293V72.5693ZM72.3633 76.5439H70.9961V79.1611H72.3633V76.5439ZM66.9141 79.1611H68.2715V76.5439H66.9141V79.1611ZM68.9551 79.1611H70.3125V76.5439H68.9551V79.1611ZM68.2715 73.5557L68.75 74.1904C67.7344 74.8089 66.5951 75.4372 65.332 76.0752C65.2018 75.8213 65.0684 75.5934 64.9316 75.3916C66.1491 74.8057 67.2624 74.1937 68.2715 73.5557ZM70.5469 74.1709L70.9473 73.5752C72.2493 74.1872 73.3757 74.7536 74.3262 75.2744L73.8965 75.9971C72.6139 75.2549 71.4974 74.6462 70.5469 74.1709ZM66.5527 71.1631L67.0605 70.6553C67.6204 71.0589 68.125 71.4528 68.5742 71.8369L68.0176 72.4229C67.5944 72.0192 67.1061 71.5993 66.5527 71.1631Z" fill="#202020"/>
<path d="M27.2658 53.9162C27.1379 53.9166 27.0111 53.8917 26.8928 53.843C26.7746 53.7943 26.6671 53.7227 26.5765 53.6324C26.486 53.542 26.4142 53.4346 26.3652 53.3165C26.3163 53.1983 26.2911 53.0716 26.2913 52.9437C26.2913 52.4129 26.7258 51.9779 27.2658 51.9779H29.521V51.6587C29.5181 51.408 29.6118 51.1658 29.7828 50.9824L29.8245 50.9272C30.0175 50.7414 30.2645 50.6234 30.5558 50.6234H33.7485V33.9667C33.424 34.0424 33.114 34.1317 32.8108 34.2632C32.526 34.3867 32.5005 34.5382 32.2333 34.7112C31.9773 34.8979 31.722 35.1047 31.5083 35.3324C30.9461 35.879 30.2857 36.3143 29.5618 36.6154C29.1975 36.7669 28.8185 36.8979 28.4033 36.9874C28.2508 37.0157 27.8435 37.0354 27.6973 37.0632L30.444 44.6932C30.5861 44.7424 30.7142 44.8252 30.8175 44.9344C31.1893 45.3079 31.1893 45.9279 30.8175 46.2937C30.3361 46.7792 29.7643 47.166 29.1345 47.4322C28.515 47.6729 27.8503 47.8184 27.1613 47.8184C26.4575 47.8184 25.7815 47.6729 25.175 47.4322L25.1185 47.4049C24.499 47.1357 23.947 46.7699 23.4913 46.2939C23.113 45.9282 23.113 45.3084 23.4913 44.9347C23.6013 44.8169 23.726 44.7419 23.864 44.6934L26.6245 37.0499C26.4943 37.0292 26.1265 37.0157 26.0018 36.9874C25.6051 36.8999 25.2175 36.7753 24.844 36.6154C24.4705 36.4772 24.119 36.2839 23.8083 36.0697C23.4773 35.8557 23.174 35.6009 22.8985 35.3324C22.6785 35.0909 22.6785 34.7109 22.8985 34.5039C23.126 34.2632 23.505 33.7632 23.7263 34.0039C23.9473 34.2112 24.1958 34.4247 24.451 34.6044C24.72 34.7769 24.9938 34.9354 25.285 35.0594C25.5818 35.1769 25.8925 35.2739 26.2163 35.3424C26.8653 35.471 27.5332 35.471 28.1823 35.3424C28.5023 35.2726 28.8164 35.178 29.1218 35.0594C29.6998 34.8182 30.2313 34.4454 30.6808 34.0039L30.6938 33.9904C30.9693 33.7147 31.2588 33.4667 31.5908 33.2524C31.894 33.0384 32.0028 32.8584 32.3615 32.7069C32.7333 32.5419 33.1198 32.4174 33.5193 32.3479L33.7485 32.2929V30.9514C33.7485 30.4132 34.446 29.9712 34.9833 29.9712C35.515 29.9712 36.2018 30.4132 36.2018 30.9514V32.2929L36.1848 32.3479C36.5843 32.4174 36.9783 32.5417 37.3443 32.7069C37.7074 32.8528 38.0545 33.0356 38.3803 33.2524C38.6965 33.4664 39.0053 33.7212 39.2753 34.0037C39.5045 34.2109 39.745 34.4244 40.0078 34.6042C40.2833 34.7767 40.5588 34.9352 40.8428 35.0592C41.1378 35.1767 41.4503 35.2737 41.772 35.3422C42.0951 35.4063 42.4237 35.4387 42.753 35.4389C43.098 35.4389 43.4293 35.4042 43.7325 35.3422C44.0633 35.2739 44.3668 35.1767 44.67 35.0592C45.2505 34.8179 45.7813 34.4452 46.229 34.0037C46.4563 33.7627 46.8375 34.2627 47.0573 34.5037C47.2773 34.7109 47.2773 35.0907 47.0573 35.3322C46.4995 35.8802 45.8414 36.3158 45.119 36.6152C44.753 36.7667 44.3665 36.8977 43.9605 36.9874C43.842 37.0154 43.467 37.0289 43.3303 37.0499L46.0973 44.6934C46.2369 44.7438 46.3626 44.8263 46.4643 44.9344C46.8508 45.3079 46.8508 45.9279 46.4643 46.2937C45.9839 46.7809 45.4116 47.1679 44.7805 47.4322C44.174 47.6729 43.4973 47.8187 42.8 47.8187C42.1048 47.8187 41.4425 47.6729 40.8273 47.4322L40.7785 47.4049C40.1515 47.1359 39.6063 46.7702 39.1448 46.2939C38.7663 45.9282 38.7663 45.3084 39.1448 44.9347C39.2493 44.8169 39.386 44.7419 39.51 44.6937L42.2713 37.0637C42.1048 37.0359 41.7053 37.0159 41.5515 36.9877C41.1552 36.8989 40.7677 36.7744 40.3938 36.6157C40.0213 36.4774 39.6698 36.2842 39.358 36.0702C39.0403 35.8562 38.7238 35.6014 38.463 35.3327C38.2263 35.1047 37.986 34.8982 37.716 34.7114C37.4542 34.537 37.1768 34.3871 36.8875 34.2634C36.6 34.1322 36.531 34.0429 36.202 33.9669V50.6237H39.401C39.683 50.6237 39.951 50.7417 40.1298 50.9274C40.3255 51.1074 40.4338 51.3764 40.4338 51.6589V51.9782H42.6985C42.8253 51.9782 42.9509 52.0031 43.0681 52.0516C43.1852 52.1002 43.2917 52.1713 43.3813 52.261C43.4709 52.3507 43.542 52.4572 43.5905 52.5744C43.639 52.6915 43.6639 52.8171 43.6638 52.9439C43.6638 53.4822 43.2348 53.9164 42.6985 53.9164H27.2658V53.9162ZM44.98 45.0314L42.7998 37.1384L40.6283 45.0314C40.896 45.2718 41.1975 45.4716 41.5233 45.6244L41.566 45.6314C41.9443 45.7899 42.3658 45.8729 42.7998 45.8729C43.249 45.8729 43.6633 45.7899 44.035 45.6314H44.0498C44.38 45.4862 44.71 45.2932 44.98 45.0314ZM29.327 45.0314L27.1615 37.1384L24.981 45.0314C25.2435 45.2797 25.5468 45.4732 25.8798 45.6244L25.9205 45.6314C26.2913 45.7899 26.713 45.8729 27.1615 45.8729C27.5885 45.8729 28.0158 45.7899 28.384 45.6314H28.3905C28.728 45.4862 29.0515 45.2932 29.327 45.0314Z" fill="#7B4D7B"/>
<circle cx="134" cy="42" r="14" fill="#F4DDF4"/>
<path d="M126.676 44.8438V43.7539C127.095 44.0091 127.542 44.1367 128.016 44.1367C128.372 44.1367 128.651 44.0495 128.852 43.875C129.055 43.6979 129.156 43.4596 129.156 43.1602C129.156 42.5326 128.727 42.2188 127.867 42.2188C127.549 42.2188 127.184 42.2422 126.77 42.2891L126.996 38.9492H130.199V39.9883H128.016L127.93 41.2617C128.146 41.2435 128.345 41.2344 128.527 41.2344C129.118 41.2344 129.585 41.3958 129.926 41.7188C130.27 42.0417 130.441 42.4792 130.441 43.0312C130.441 43.6406 130.234 44.1393 129.82 44.5273C129.406 44.9128 128.844 45.1055 128.133 45.1055C127.557 45.1055 127.072 45.0182 126.676 44.8438ZM135.16 40.0781C134.853 39.9036 134.518 39.8164 134.156 39.8164C133.69 39.8164 133.316 40 133.035 40.3672C132.757 40.7318 132.617 41.2044 132.617 41.7852H132.641C132.93 41.3424 133.358 41.1211 133.926 41.1211C134.434 41.1211 134.836 41.2956 135.133 41.6445C135.432 41.9909 135.582 42.4427 135.582 43C135.582 43.6094 135.388 44.1133 135 44.5117C134.612 44.9076 134.116 45.1055 133.512 45.1055C132.819 45.1055 132.288 44.8555 131.918 44.3555C131.551 43.8555 131.367 43.1706 131.367 42.3008C131.367 41.2773 131.605 40.4466 132.082 39.8086C132.561 39.168 133.227 38.8477 134.078 38.8477C134.536 38.8477 134.897 38.9023 135.16 39.0117V40.0781ZM132.66 43.0117C132.66 43.3242 132.738 43.5898 132.895 43.8086C133.051 44.0273 133.257 44.1367 133.512 44.1367C133.77 44.1367 133.973 44.0365 134.121 43.8359C134.27 43.6354 134.344 43.3841 134.344 43.082C134.344 42.4023 134.064 42.0625 133.504 42.0625C133.251 42.0625 133.047 42.1523 132.891 42.332C132.737 42.5117 132.66 42.7383 132.66 43.0117ZM136.246 40.5039C136.246 40.0091 136.383 39.6133 136.656 39.3164C136.932 39.0169 137.305 38.8672 137.773 38.8672C138.221 38.8672 138.569 39.0026 138.816 39.2734C139.066 39.5443 139.191 39.918 139.191 40.3945C139.191 40.8841 139.053 41.276 138.777 41.5703C138.501 41.8646 138.133 42.0117 137.672 42.0117C137.24 42.0117 136.893 41.8737 136.633 41.5977C136.375 41.3216 136.246 40.957 136.246 40.5039ZM137.105 40.4609C137.105 41.0208 137.311 41.3008 137.723 41.3008C138.142 41.3008 138.352 41.0091 138.352 40.4258C138.352 39.8607 138.151 39.5781 137.75 39.5781C137.32 39.5781 137.105 39.8724 137.105 40.4609ZM142.047 38.9492L138.113 45.0039H137.133L141.059 38.9492H142.047ZM139.996 43.5742C139.996 43.0742 140.135 42.6771 140.414 42.3828C140.693 42.0859 141.064 41.9375 141.527 41.9375C141.975 41.9375 142.323 42.0703 142.57 42.3359C142.82 42.6016 142.945 42.9753 142.945 43.457C142.945 43.9518 142.806 44.3477 142.527 44.6445C142.249 44.9388 141.88 45.0859 141.422 45.0859C140.992 45.0859 140.647 44.9479 140.387 44.6719C140.126 44.3932 139.996 44.0273 139.996 43.5742ZM140.852 43.5312C140.852 44.0938 141.059 44.375 141.473 44.375C141.889 44.375 142.098 44.0833 142.098 43.5C142.098 43.2266 142.042 43.0169 141.93 42.8711C141.82 42.7227 141.673 42.6484 141.488 42.6484C141.064 42.6484 140.852 42.9427 140.852 43.5312Z" fill="#C997C9"/>
</g>
<defs>
<filter id="filter0_d_128_410" x="0" y="0" width="168" height="268" filterUnits="userSpaceOnUse" color-interpolation-filters="sRGB">
<feFlood flood-opacity="0" result="BackgroundImageFix"/>
<feColorMatrix in="SourceAlpha" type="matrix" values="0 0 0 0 0 0 0 0 0 0 0 0 0 0 0 0 0 0 127 0" result="hardAlpha"/>
<feOffset dy="4"/>
<feGaussianBlur stdDeviation="2"/>
<feComposite in2="hardAlpha" operator="out"/>
<feColorMatrix type="matrix" values="0 0 0 0 0 0 0 0 0 0 0 0 0 0 0 0 0 0 0.25 0"/>
<feBlend mode="normal" in2="BackgroundImageFix" result="effect1_dropShadow_128_410"/>
<feBlend mode="normal" in="SourceGraphic" in2="effect1_dropShadow_128_410" result="shape"/>
</filter>
<clipPath id="clip0_128_410">
<rect width="160" height="260" fill="white" transform="translate(4)"/>
</clipPath>
</defs>
</svg>
