<svg width="256" height="268" viewBox="0 0 256 268" fill="none" xmlns="http://www.w3.org/2000/svg">
<g filter="url(#filter0_d_128_430)">
<rect x="4" width="248" height="260" rx="24" fill="white"/>
<rect x="45" y="225" width="60" height="6" rx="3" fill="#F5CEFF"/>
<rect x="45" y="225" width="20" height="6" rx="3" fill="#D847FD"/>
<rect x="45" y="240" width="60" height="6" rx="3" fill="#ABC7FE"/>
<rect x="45" y="240" width="26" height="6" rx="3" fill="#4D88F9"/>
<rect x="153" y="240" width="40" height="6" rx="3" fill="#C9F1C2"/>
<rect x="153" y="240" width="10" height="6" rx="3" fill="#58F93D"/>
<rect x="153" y="225" width="40" height="6" rx="3" fill="#FFCFAD"/>
<rect x="153" y="225" width="16" height="6" rx="3" fill="#FC9346"/>
<path d="M216.333 36L212.333 32L216.333 28" stroke="#333333" stroke-opacity="0.8" stroke-width="2" stroke-linecap="round" stroke-linejoin="round"/>
<path d="M231.667 36L235.667 32L231.667 28" stroke="#333333" stroke-opacity="0.8" stroke-width="2" stroke-linecap="round" stroke-linejoin="round"/>
<path d="M57.998 31.3027C57.998 30.8145 57.8438 30.4316 57.5352 30.1543C57.2266 29.873 56.8066 29.7324 56.2754 29.7324C55.9004 29.7324 55.5215 29.8281 55.1387 30.0195C54.7559 30.2109 54.3984 30.4844 54.0664 30.8398V29.7266C54.3633 29.418 54.6992 29.1816 55.0742 29.0176C55.4531 28.8535 55.8965 28.7715 56.4043 28.7715C57.2246 28.7715 57.8848 28.9922 58.3848 29.4336C58.8848 29.8711 59.1348 30.4648 59.1348 31.2148C59.1348 31.8828 58.9805 32.4609 58.6719 32.9492C58.3672 33.4375 57.8438 33.9375 57.1016 34.4492C56.3438 34.9727 55.8359 35.3477 55.5781 35.5742C55.3242 35.8008 55.1465 36.0176 55.0449 36.2246C54.9434 36.4316 54.8926 36.6836 54.8926 36.9805H59.4043V38H53.6973V37.5488C53.6973 37.0254 53.7676 36.582 53.9082 36.2188C54.0527 35.8516 54.2891 35.4961 54.6172 35.1523C54.9453 34.8047 55.457 34.3887 56.1523 33.9043C56.8633 33.4043 57.3477 32.9668 57.6055 32.5918C57.8672 32.2129 57.998 31.7832 57.998 31.3027ZM60.5762 33.6406C60.5762 32.0391 60.8418 30.8281 61.373 30.0078C61.9043 29.1836 62.6738 28.7715 63.6816 28.7715C65.6035 28.7715 66.5645 30.3223 66.5645 33.4238C66.5645 34.9551 66.293 36.127 65.75 36.9395C65.2109 37.748 64.4531 38.1523 63.4766 38.1523C62.5547 38.1523 61.8398 37.7676 61.332 36.998C60.8281 36.2285 60.5762 35.1094 60.5762 33.6406ZM61.748 33.5879C61.748 35.998 62.3594 37.2031 63.582 37.2031C64.7852 37.2031 65.3867 35.9785 65.3867 33.5293C65.3867 30.9941 64.7969 29.7266 63.6172 29.7266C62.3711 29.7266 61.748 31.0137 61.748 33.5879ZM72.084 31.3027C72.084 30.8145 71.9297 30.4316 71.6211 30.1543C71.3125 29.873 70.8926 29.7324 70.3613 29.7324C69.9863 29.7324 69.6074 29.8281 69.2246 30.0195C68.8418 30.2109 68.4844 30.4844 68.1523 30.8398V29.7266C68.4492 29.418 68.7852 29.1816 69.1602 29.0176C69.5391 28.8535 69.9824 28.7715 70.4902 28.7715C71.3105 28.7715 71.9707 28.9922 72.4707 29.4336C72.9707 29.8711 73.2207 30.4648 73.2207 31.2148C73.2207 31.8828 73.0664 32.4609 72.7578 32.9492C72.4531 33.4375 71.9297 33.9375 71.1875 34.4492C70.4297 34.9727 69.9219 35.3477 69.6641 35.5742C69.4102 35.8008 69.2324 36.0176 69.1309 36.2246C69.0293 36.4316 68.9785 36.6836 68.9785 36.9805H73.4902V38H67.7832V37.5488C67.7832 37.0254 67.8535 36.582 67.9941 36.2188C68.1387 35.8516 68.375 35.4961 68.7031 35.1523C69.0312 34.8047 69.543 34.3887 70.2383 33.9043C70.9492 33.4043 71.4336 32.9668 71.6914 32.5918C71.9531 32.2129 72.084 31.7832 72.084 31.3027ZM79.5781 28.9238V34.918H80.9375V35.8672H79.5781V38H78.4648V35.8672H74.2285V34.9707C74.9824 34.123 75.7402 33.1465 76.502 32.041C77.2637 30.9355 77.8926 29.8965 78.3887 28.9238H79.5781ZM75.5176 34.918H78.4648V30.5938C78.0586 31.3242 77.623 32.0332 77.1582 32.7207C76.6934 33.4043 76.1465 34.1367 75.5176 34.918Z" fill="black"/>
<path d="M28.1562 59.7764H37.8633V60.6357H28.1562V59.7764Z" fill="#202020"/>
<path d="M61.0156 56.9443H68.9844V57.7842H61.0156V56.9443ZM60.293 63.3408H69.6777V64.1611H60.293V63.3408Z" fill="#202020"/>
<path d="M92.8984 56.6709H101.082V57.5107H92.8984V56.6709ZM92.293 63.7412H101.727V64.5615H92.293V63.7412ZM93.3379 60.0205H100.643V60.8506H93.3379V60.0205Z" fill="#202020"/>
<path d="M124.908 56.4072H133.316V65.2549H132.496V64.6689H125.729V65.2549H124.908V56.4072ZM131.227 61.2705C131.533 61.2705 131.913 61.264 132.369 61.251L132.223 62.0518H131.1C130.234 62.0518 129.801 61.6579 129.801 60.8701V57.1885H128.404C128.395 59.0244 128.287 60.2321 128.082 60.8115C127.867 61.5407 127.294 62.2048 126.363 62.8037C126.194 62.6019 125.992 62.3936 125.758 62.1787C126.637 61.6514 127.161 61.0817 127.33 60.4697C127.503 60.0465 127.594 58.9528 127.604 57.1885H125.729V63.9072H132.496V57.1885H130.602V60.7627C130.602 61.1012 130.81 61.2705 131.227 61.2705Z" fill="#202020"/>
<path d="M156.195 64.0537H158.471L159.037 60.2256H156.811V59.4834H159.154L159.506 57.1104H156.547V56.3682H165.395V57.1104H160.326L159.975 59.4834H164.271V64.0537H165.854V64.7861H156.195V64.0537ZM163.451 60.2256H159.867L159.291 64.0537H163.451V60.2256Z" fill="#202020"/>
<path d="M188.293 58.2139H197.775V58.9951H188.293V58.2139ZM192.004 56.1533L192.717 55.7529C193.029 56.1956 193.407 56.7848 193.85 57.5205L193.049 57.9502C192.626 57.1429 192.277 56.5439 192.004 56.1533ZM191.223 60.1475L192.062 60.5869C191.177 62.1755 190.155 63.6794 188.996 65.0986C188.788 64.9163 188.544 64.7113 188.264 64.4834C189.39 63.2725 190.376 61.8271 191.223 60.1475ZM193.869 60.7139L194.543 60.2158C195.611 61.5505 196.646 62.9404 197.648 64.3857L196.828 64.9912C195.708 63.2269 194.722 61.8011 193.869 60.7139Z" fill="#202020"/>
<path d="M221.523 56.3291H228.486V65.1963H227.656V64.5029H222.354V65.1963H221.523V56.3291ZM222.354 60.7139V63.79H227.656V60.7139H222.354ZM222.354 57.0615V59.9814H227.656V57.0615H222.354Z" fill="#202020"/>
<path d="M31.416 29.6328C30.4629 31.2969 29.7129 32.8379 29.166 34.2559C28.623 35.6699 28.2871 36.918 28.1582 38H26.9629C27.1074 36.9336 27.4492 35.7168 27.9883 34.3496C28.5273 32.9824 29.248 31.5117 30.1504 29.9375H25.6504V28.9238H31.416V29.6328ZM35.0488 35.5918C34.873 37.0996 34.2852 38.4629 33.2852 39.6816C33.0352 39.4395 32.7656 39.2051 32.4766 38.9785C33.2344 38.1582 33.7422 37.1816 34 36.0488C34.1797 35.2129 34.2695 34.0566 34.2695 32.5801V28.5254H42.0977V37.666C42.0977 38.8223 41.5469 39.4004 40.4453 39.4004C39.9844 39.4004 39.3906 39.3926 38.6641 39.377C38.625 39.0957 38.5664 38.7676 38.4883 38.3926C39.207 38.4395 39.7734 38.4629 40.1875 38.4629C40.8203 38.4629 41.1367 38.1543 41.1367 37.5371V35.5918H35.0488ZM35.1426 34.7363H41.1367V32.4863H35.2305C35.2305 33.2676 35.2012 34.0176 35.1426 34.7363ZM35.2305 29.4043V31.6309H41.1367V29.4043H35.2305Z" fill="black"/>
<path d="M32.7832 89V82.5303C32.6335 82.68 32.3796 82.8477 32.0215 83.0332C31.6667 83.2188 31.3379 83.349 31.0352 83.4238V82.4863C31.4355 82.3757 31.8636 82.1999 32.3193 81.959C32.7751 81.7148 33.125 81.4854 33.3691 81.2705H33.7305V89H32.7832Z" fill="#9A9999"/>
<path d="M30.4785 115.891C30.4785 115.454 30.6087 115.052 30.8691 114.685C31.1296 114.317 31.4648 114.055 31.875 113.898C31.5462 113.713 31.2858 113.475 31.0938 113.186C30.9017 112.896 30.8057 112.582 30.8057 112.243C30.8057 111.885 30.8968 111.558 31.0791 111.262C31.2646 110.965 31.5202 110.733 31.8457 110.563C32.1745 110.394 32.5358 110.31 32.9297 110.31C33.3268 110.31 33.6898 110.394 34.0186 110.563C34.3473 110.729 34.6029 110.961 34.7852 111.257C34.9674 111.553 35.0586 111.882 35.0586 112.243C35.0586 112.575 34.9642 112.888 34.7754 113.181C34.5898 113.47 34.3311 113.71 33.999 113.898C34.4092 114.058 34.7428 114.322 35 114.689C35.2572 115.057 35.3857 115.458 35.3857 115.891C35.3857 116.32 35.2832 116.706 35.0781 117.048C34.873 117.386 34.5817 117.65 34.2041 117.839C33.8265 118.028 33.4017 118.122 32.9297 118.122C32.4609 118.122 32.0394 118.028 31.665 117.839C31.2907 117.65 30.9993 117.385 30.791 117.043C30.5827 116.701 30.4785 116.317 30.4785 115.891ZM31.416 115.847C31.416 116.296 31.5544 116.656 31.8311 116.926C32.1077 117.196 32.4756 117.331 32.9346 117.331C33.3838 117.331 33.75 117.194 34.0332 116.921C34.3197 116.644 34.4629 116.286 34.4629 115.847C34.4629 115.43 34.318 115.08 34.0283 114.797C33.7419 114.51 33.3773 114.367 32.9346 114.367C32.4951 114.367 32.1322 114.507 31.8457 114.787C31.5592 115.064 31.416 115.417 31.416 115.847ZM31.6895 112.321C31.6895 112.66 31.8099 112.951 32.0508 113.195C32.2917 113.436 32.5863 113.557 32.9346 113.557C33.2764 113.557 33.571 113.435 33.8184 113.19C34.069 112.946 34.1943 112.657 34.1943 112.321C34.1943 111.979 34.0739 111.69 33.833 111.452C33.5954 111.215 33.2959 111.096 32.9346 111.096C32.5765 111.096 32.2786 111.213 32.041 111.447C31.8066 111.678 31.6895 111.97 31.6895 112.321Z" fill="#9A9999"/>
<path d="M29.7832 147V140.53C29.6335 140.68 29.3796 140.848 29.0215 141.033C28.6667 141.219 28.3379 141.349 28.0352 141.424V140.486C28.4355 140.376 28.8636 140.2 29.3193 139.959C29.7751 139.715 30.125 139.485 30.3691 139.271H30.7305V147H29.7832ZM38.0156 144.666C38.0156 145.405 37.7699 146.001 37.2783 146.453C36.79 146.906 36.1325 147.132 35.3057 147.132C34.596 147.132 34.0671 147.026 33.7188 146.814V145.838C34.2298 146.17 34.7507 146.336 35.2812 146.336C35.8086 146.336 36.2334 146.191 36.5557 145.901C36.8812 145.608 37.0439 145.221 37.0439 144.739C37.0439 144.257 36.8747 143.883 36.5361 143.616C36.2008 143.346 35.7256 143.211 35.1104 143.211C34.6351 143.211 34.207 143.232 33.8262 143.274L34.1045 139.437H37.6396V140.276H34.9102L34.7539 142.42L35.4424 142.391C36.2432 142.391 36.8714 142.591 37.3271 142.991C37.7861 143.388 38.0156 143.947 38.0156 144.666Z" fill="#9A9999"/>
<path d="M32.165 171.419C32.165 171.012 32.0365 170.693 31.7793 170.462C31.5221 170.228 31.1722 170.11 30.7295 170.11C30.417 170.11 30.1012 170.19 29.7822 170.35C29.4632 170.509 29.1654 170.737 28.8887 171.033V170.105C29.1361 169.848 29.416 169.651 29.7285 169.515C30.0443 169.378 30.4137 169.31 30.8369 169.31C31.5205 169.31 32.0706 169.493 32.4873 169.861C32.904 170.226 33.1123 170.721 33.1123 171.346C33.1123 171.902 32.9837 172.384 32.7266 172.791C32.4727 173.198 32.0365 173.615 31.418 174.041C30.7865 174.477 30.3633 174.79 30.1484 174.979C29.9368 175.167 29.7887 175.348 29.7041 175.521C29.6195 175.693 29.5771 175.903 29.5771 176.15H33.3369V177H28.5811V176.624C28.5811 176.188 28.6396 175.818 28.7568 175.516C28.8773 175.21 29.0742 174.913 29.3477 174.627C29.6211 174.337 30.0475 173.991 30.627 173.587C31.2194 173.17 31.623 172.806 31.8379 172.493C32.056 172.177 32.165 171.819 32.165 171.419ZM38.0342 171.419C38.0342 171.012 37.9056 170.693 37.6484 170.462C37.3913 170.228 37.0413 170.11 36.5986 170.11C36.2861 170.11 35.9704 170.19 35.6514 170.35C35.3324 170.509 35.0345 170.737 34.7578 171.033V170.105C35.0052 169.848 35.2852 169.651 35.5977 169.515C35.9134 169.378 36.2829 169.31 36.7061 169.31C37.3896 169.31 37.9398 169.493 38.3564 169.861C38.7731 170.226 38.9814 170.721 38.9814 171.346C38.9814 171.902 38.8529 172.384 38.5957 172.791C38.3418 173.198 37.9056 173.615 37.2871 174.041C36.6556 174.477 36.2324 174.79 36.0176 174.979C35.806 175.167 35.6579 175.348 35.5732 175.521C35.4886 175.693 35.4463 175.903 35.4463 176.15H39.2061V177H34.4502V176.624C34.4502 176.188 34.5088 175.818 34.626 175.516C34.7464 175.21 34.9434 174.913 35.2168 174.627C35.4902 174.337 35.9167 173.991 36.4961 173.587C37.0885 173.17 37.4922 172.806 37.707 172.493C37.9251 172.177 38.0342 171.819 38.0342 171.419Z" fill="#202020"/>
<path d="M32.165 200.419C32.165 200.012 32.0365 199.693 31.7793 199.462C31.5221 199.228 31.1722 199.11 30.7295 199.11C30.417 199.11 30.1012 199.19 29.7822 199.35C29.4632 199.509 29.1654 199.737 28.8887 200.033V199.105C29.1361 198.848 29.416 198.651 29.7285 198.515C30.0443 198.378 30.4137 198.31 30.8369 198.31C31.5205 198.31 32.0706 198.493 32.4873 198.861C32.904 199.226 33.1123 199.721 33.1123 200.346C33.1123 200.902 32.9837 201.384 32.7266 201.791C32.4727 202.198 32.0365 202.615 31.418 203.041C30.7865 203.477 30.3633 203.79 30.1484 203.979C29.9368 204.167 29.7887 204.348 29.7041 204.521C29.6195 204.693 29.5771 204.903 29.5771 205.15H33.3369V206H28.5811V205.624C28.5811 205.188 28.6396 204.818 28.7568 204.516C28.8773 204.21 29.0742 203.913 29.3477 203.627C29.6211 203.337 30.0475 202.991 30.627 202.587C31.2194 202.17 31.623 201.806 31.8379 201.493C32.056 201.177 32.165 200.819 32.165 200.419ZM34.7725 204.975C35.1891 205.215 35.6383 205.336 36.1201 205.336C36.7972 205.336 37.3213 205.069 37.6924 204.535C38.0667 204.001 38.2539 203.243 38.2539 202.26C38.2474 202.266 38.2409 202.266 38.2344 202.26C37.9023 202.891 37.3441 203.207 36.5596 203.207C35.9248 203.207 35.3991 202.989 34.9824 202.553C34.5658 202.117 34.3574 201.55 34.3574 200.854C34.3574 200.111 34.5853 199.503 35.041 199.027C35.4967 198.549 36.0876 198.31 36.8135 198.31C37.5654 198.31 38.153 198.606 38.5762 199.198C38.9993 199.787 39.2109 200.647 39.2109 201.776C39.2109 203.173 38.9375 204.247 38.3906 204.999C37.8438 205.751 37.0869 206.127 36.1201 206.127C35.5895 206.127 35.1403 206.041 34.7725 205.868V204.975ZM35.3242 200.731C35.3242 201.239 35.4544 201.643 35.7148 201.942C35.9753 202.239 36.335 202.387 36.7939 202.387C37.1911 202.387 37.5247 202.252 37.7949 201.981C38.0651 201.708 38.2002 201.378 38.2002 200.99C38.2002 200.447 38.0651 199.997 37.7949 199.643C37.528 199.285 37.1748 199.105 36.7354 199.105C36.3285 199.105 35.9915 199.26 35.7246 199.569C35.4577 199.879 35.3242 200.266 35.3242 200.731Z" fill="#202020"/>
<path d="M66.165 83.4189C66.165 83.012 66.0365 82.693 65.7793 82.4619C65.5221 82.2275 65.1722 82.1104 64.7295 82.1104C64.417 82.1104 64.1012 82.1901 63.7822 82.3496C63.4632 82.5091 63.1654 82.737 62.8887 83.0332V82.1055C63.1361 81.8483 63.416 81.6514 63.7285 81.5146C64.0443 81.3779 64.4137 81.3096 64.8369 81.3096C65.5205 81.3096 66.0706 81.4935 66.4873 81.8613C66.904 82.2259 67.1123 82.7207 67.1123 83.3457C67.1123 83.9023 66.9837 84.3841 66.7266 84.791C66.4727 85.1979 66.0365 85.6146 65.418 86.041C64.7865 86.4772 64.3633 86.7897 64.1484 86.9785C63.9368 87.1673 63.7887 87.348 63.7041 87.5205C63.6195 87.693 63.5771 87.903 63.5771 88.1504H67.3369V89H62.5811V88.624C62.5811 88.1878 62.6396 87.8184 62.7568 87.5156C62.8773 87.2096 63.0742 86.9134 63.3477 86.627C63.6211 86.3372 64.0475 85.9906 64.627 85.5869C65.2194 85.1702 65.623 84.8057 65.8379 84.4932C66.056 84.1774 66.165 83.8193 66.165 83.4189Z" fill="#9A9999"/>
<path d="M62.9033 116.975C63.32 117.215 63.7692 117.336 64.251 117.336C64.9281 117.336 65.4521 117.069 65.8232 116.535C66.1976 116.001 66.3848 115.243 66.3848 114.26C66.3783 114.266 66.3717 114.266 66.3652 114.26C66.0332 114.891 65.4749 115.207 64.6904 115.207C64.0557 115.207 63.5299 114.989 63.1133 114.553C62.6966 114.117 62.4883 113.55 62.4883 112.854C62.4883 112.111 62.7161 111.503 63.1719 111.027C63.6276 110.549 64.2184 110.31 64.9443 110.31C65.6963 110.31 66.2839 110.606 66.707 111.198C67.1302 111.787 67.3418 112.647 67.3418 113.776C67.3418 115.173 67.0684 116.247 66.5215 116.999C65.9746 117.751 65.2178 118.127 64.251 118.127C63.7204 118.127 63.2712 118.041 62.9033 117.868V116.975ZM63.4551 112.731C63.4551 113.239 63.5853 113.643 63.8457 113.942C64.1061 114.239 64.4658 114.387 64.9248 114.387C65.3219 114.387 65.6556 114.252 65.9258 113.981C66.196 113.708 66.3311 113.378 66.3311 112.99C66.3311 112.447 66.196 111.997 65.9258 111.643C65.6589 111.285 65.3057 111.105 64.8662 111.105C64.4593 111.105 64.1224 111.26 63.8555 111.569C63.5885 111.879 63.4551 112.266 63.4551 112.731Z" fill="#9A9999"/>
<rect x="53" y="132" width="24" height="24" rx="12" fill="#180A18"/>
<rect x="85.5" y="73.5" width="23" height="23" rx="11.5" stroke="url(#paint0_linear_128_430)"/>
<rect x="149.5" y="73.5" width="23" height="23" rx="11.5" stroke="url(#paint1_linear_128_430)"/>
<rect x="181.5" y="102.5" width="23" height="23" rx="11.5" stroke="url(#paint2_linear_128_430)"/>
<rect x="21.5" y="131.5" width="23" height="23" rx="11.5" stroke="url(#paint3_linear_128_430)"/>
<rect x="117.5" y="102.5" width="23" height="23" rx="11.5" stroke="url(#paint4_linear_128_430)"/>
<rect x="21.5" y="102.5" width="23" height="23" rx="11.5" stroke="url(#paint5_linear_128_430)"/>
<rect x="213.5" y="74.5" width="22" height="23" rx="11" stroke="url(#paint6_linear_128_430)"/>
<path d="M61.7832 147V140.53C61.6335 140.68 61.3796 140.848 61.0215 141.033C60.6667 141.219 60.3379 141.349 60.0352 141.424V140.486C60.4355 140.376 60.8636 140.2 61.3193 139.959C61.7751 139.715 62.125 139.485 62.3691 139.271H62.7305V147H61.7832ZM69.8398 140.408C69.446 140.206 69.0342 140.105 68.6045 140.105C67.9502 140.105 67.4245 140.39 67.0273 140.96C66.6302 141.53 66.4284 142.308 66.4219 143.294H66.4463C66.8044 142.601 67.3757 142.254 68.1602 142.254C68.8145 142.254 69.3369 142.467 69.7275 142.894C70.1182 143.32 70.3135 143.886 70.3135 144.593C70.3135 145.332 70.0872 145.939 69.6348 146.414C69.1855 146.889 68.611 147.127 67.9111 147.127C67.1429 147.127 66.5391 146.827 66.0996 146.229C65.6634 145.626 65.4453 144.773 65.4453 143.67C65.4453 142.335 65.7318 141.276 66.3047 140.491C66.8809 139.703 67.6377 139.31 68.5752 139.31C69.1123 139.31 69.5339 139.383 69.8398 139.529V140.408ZM66.4805 144.524C66.4805 145.022 66.6123 145.449 66.876 145.804C67.1429 146.159 67.4961 146.336 67.9355 146.336C68.3522 146.336 68.6908 146.183 68.9512 145.877C69.2116 145.571 69.3418 145.177 69.3418 144.695C69.3418 144.174 69.2181 143.769 68.9707 143.479C68.7266 143.19 68.3783 143.045 67.9258 143.045C67.4961 143.045 67.1478 143.191 66.8809 143.484C66.6139 143.777 66.4805 144.124 66.4805 144.524Z" fill="white"/>
<path d="M63.165 171.419C63.165 171.012 63.0365 170.693 62.7793 170.462C62.5221 170.228 62.1722 170.11 61.7295 170.11C61.417 170.11 61.1012 170.19 60.7822 170.35C60.4632 170.509 60.1654 170.737 59.8887 171.033V170.105C60.1361 169.848 60.416 169.651 60.7285 169.515C61.0443 169.378 61.4137 169.31 61.8369 169.31C62.5205 169.31 63.0706 169.493 63.4873 169.861C63.904 170.226 64.1123 170.721 64.1123 171.346C64.1123 171.902 63.9837 172.384 63.7266 172.791C63.4727 173.198 63.0365 173.615 62.418 174.041C61.7865 174.477 61.3633 174.79 61.1484 174.979C60.9368 175.167 60.7887 175.348 60.7041 175.521C60.6195 175.693 60.5771 175.903 60.5771 176.15H64.3369V177H59.5811V176.624C59.5811 176.188 59.6396 175.818 59.7568 175.516C59.8773 175.21 60.0742 174.913 60.3477 174.627C60.6211 174.337 61.0475 173.991 61.627 173.587C62.2194 173.17 62.623 172.806 62.8379 172.493C63.056 172.177 63.165 171.819 63.165 171.419ZM65.5674 175.735C66.085 176.136 66.6693 176.336 67.3203 176.336C67.8411 176.336 68.2529 176.209 68.5557 175.955C68.8617 175.698 69.0146 175.354 69.0146 174.925C69.0146 173.968 68.3294 173.489 66.959 173.489H66.3291V172.698H66.9297C68.1439 172.698 68.751 172.249 68.751 171.351C68.751 170.521 68.2871 170.105 67.3594 170.105C66.8288 170.105 66.3291 170.285 65.8604 170.643V169.739C66.3551 169.453 66.9329 169.31 67.5938 169.31C68.2383 169.31 68.7559 169.479 69.1465 169.817C69.5371 170.153 69.7324 170.589 69.7324 171.126C69.7324 172.116 69.2279 172.752 68.2188 173.035V173.055C68.7656 173.113 69.1969 173.307 69.5127 173.636C69.8317 173.961 69.9912 174.368 69.9912 174.856C69.9912 175.537 69.7454 176.085 69.2539 176.502C68.7656 176.919 68.1146 177.127 67.3008 177.127C66.5846 177.127 66.0068 176.993 65.5674 176.727V175.735Z" fill="#202020"/>
<path d="M59.6982 204.735C60.2158 205.136 60.8001 205.336 61.4512 205.336C61.972 205.336 62.3838 205.209 62.6865 204.955C62.9925 204.698 63.1455 204.354 63.1455 203.925C63.1455 202.968 62.4603 202.489 61.0898 202.489H60.46V201.698H61.0605C62.2747 201.698 62.8818 201.249 62.8818 200.351C62.8818 199.521 62.418 199.105 61.4902 199.105C60.9596 199.105 60.46 199.285 59.9912 199.643V198.739C60.486 198.453 61.0638 198.31 61.7246 198.31C62.3691 198.31 62.8867 198.479 63.2773 198.817C63.668 199.153 63.8633 199.589 63.8633 200.126C63.8633 201.116 63.3587 201.752 62.3496 202.035V202.055C62.8965 202.113 63.3278 202.307 63.6436 202.636C63.9626 202.961 64.1221 203.368 64.1221 203.856C64.1221 204.537 63.8763 205.085 63.3848 205.502C62.8965 205.919 62.2454 206.127 61.4316 206.127C60.7155 206.127 60.1377 205.993 59.6982 205.727V204.735ZM65.3135 202.367C65.3135 201.033 65.5348 200.023 65.9775 199.34C66.4202 198.653 67.0615 198.31 67.9014 198.31C69.5029 198.31 70.3037 199.602 70.3037 202.187C70.3037 203.463 70.0775 204.439 69.625 205.116C69.1758 205.79 68.5443 206.127 67.7305 206.127C66.9622 206.127 66.3665 205.806 65.9434 205.165C65.5234 204.524 65.3135 203.591 65.3135 202.367ZM66.29 202.323C66.29 204.332 66.7995 205.336 67.8184 205.336C68.821 205.336 69.3223 204.315 69.3223 202.274C69.3223 200.162 68.8307 199.105 67.8477 199.105C66.8092 199.105 66.29 200.178 66.29 202.323Z" fill="#202020"/>
<path d="M94.6982 87.7354C95.2158 88.1357 95.8001 88.3359 96.4512 88.3359C96.972 88.3359 97.3838 88.209 97.6865 87.9551C97.9925 87.6979 98.1455 87.3545 98.1455 86.9248C98.1455 85.9678 97.4603 85.4893 96.0898 85.4893H95.46V84.6982H96.0605C97.2747 84.6982 97.8818 84.249 97.8818 83.3506C97.8818 82.5205 97.418 82.1055 96.4902 82.1055C95.9596 82.1055 95.46 82.2845 94.9912 82.6426V81.7393C95.486 81.4528 96.0638 81.3096 96.7246 81.3096C97.3691 81.3096 97.8867 81.4788 98.2773 81.8174C98.668 82.1527 98.8633 82.5889 98.8633 83.126C98.8633 84.1156 98.3587 84.752 97.3496 85.0352V85.0547C97.8965 85.1133 98.3278 85.307 98.6436 85.6357C98.9626 85.9613 99.1221 86.3682 99.1221 86.8564C99.1221 87.5368 98.8763 88.0853 98.3848 88.502C97.8965 88.9186 97.2454 89.127 96.4316 89.127C95.7155 89.127 95.1377 88.9935 94.6982 88.7266V87.7354Z" fill="#9A9999"/>
<path d="M93.7832 118V111.53C93.6335 111.68 93.3796 111.848 93.0215 112.033C92.6667 112.219 92.3379 112.349 92.0352 112.424V111.486C92.4355 111.376 92.8636 111.2 93.3193 110.959C93.7751 110.715 94.125 110.485 94.3691 110.271H94.7305V118H93.7832ZM97.3135 114.367C97.3135 113.033 97.5348 112.023 97.9775 111.34C98.4202 110.653 99.0615 110.31 99.9014 110.31C101.503 110.31 102.304 111.602 102.304 114.187C102.304 115.463 102.077 116.439 101.625 117.116C101.176 117.79 100.544 118.127 99.7305 118.127C98.9622 118.127 98.3665 117.806 97.9434 117.165C97.5234 116.524 97.3135 115.591 97.3135 114.367ZM98.29 114.323C98.29 116.332 98.7995 117.336 99.8184 117.336C100.821 117.336 101.322 116.315 101.322 114.274C101.322 112.162 100.831 111.105 99.8477 111.105C98.8092 111.105 98.29 112.178 98.29 114.323Z" fill="#9A9999"/>
<path d="M93.7832 147V140.53C93.6335 140.68 93.3796 140.848 93.0215 141.033C92.6667 141.219 92.3379 141.349 92.0352 141.424V140.486C92.4355 140.376 92.8636 140.2 93.3193 139.959C93.7751 139.715 94.125 139.485 94.3691 139.271H94.7305V147H93.7832ZM102.216 140.027C101.422 141.414 100.797 142.698 100.341 143.88C99.8883 145.058 99.6084 146.098 99.501 147H98.5049C98.6253 146.111 98.9102 145.097 99.3594 143.958C99.8086 142.819 100.409 141.593 101.161 140.281H97.4111V139.437H102.216V140.027Z" fill="#202020"/>
<path d="M95.165 171.419C95.165 171.012 95.0365 170.693 94.7793 170.462C94.5221 170.228 94.1722 170.11 93.7295 170.11C93.417 170.11 93.1012 170.19 92.7822 170.35C92.4632 170.509 92.1654 170.737 91.8887 171.033V170.105C92.1361 169.848 92.416 169.651 92.7285 169.515C93.0443 169.378 93.4137 169.31 93.8369 169.31C94.5205 169.31 95.0706 169.493 95.4873 169.861C95.904 170.226 96.1123 170.721 96.1123 171.346C96.1123 171.902 95.9837 172.384 95.7266 172.791C95.4727 173.198 95.0365 173.615 94.418 174.041C93.7865 174.477 93.3633 174.79 93.1484 174.979C92.9368 175.167 92.7887 175.348 92.7041 175.521C92.6195 175.693 92.5771 175.903 92.5771 176.15H96.3369V177H91.5811V176.624C91.5811 176.188 91.6396 175.818 91.7568 175.516C91.8773 175.21 92.0742 174.913 92.3477 174.627C92.6211 174.337 93.0475 173.991 93.627 173.587C94.2194 173.17 94.623 172.806 94.8379 172.493C95.056 172.177 95.165 171.819 95.165 171.419ZM101.41 169.437V174.432H102.543V175.223H101.41V177H100.482V175.223H96.9521V174.476C97.5804 173.769 98.2119 172.955 98.8467 172.034C99.4814 171.113 100.006 170.247 100.419 169.437H101.41ZM98.0264 174.432H100.482V170.828C100.144 171.437 99.7809 172.028 99.3936 172.601C99.0062 173.17 98.5505 173.781 98.0264 174.432Z" fill="#202020"/>
<path d="M91.6982 204.735C92.2158 205.136 92.8001 205.336 93.4512 205.336C93.972 205.336 94.3838 205.209 94.6865 204.955C94.9925 204.698 95.1455 204.354 95.1455 203.925C95.1455 202.968 94.4603 202.489 93.0898 202.489H92.46V201.698H93.0605C94.2747 201.698 94.8818 201.249 94.8818 200.351C94.8818 199.521 94.418 199.105 93.4902 199.105C92.9596 199.105 92.46 199.285 91.9912 199.643V198.739C92.486 198.453 93.0638 198.31 93.7246 198.31C94.3691 198.31 94.8867 198.479 95.2773 198.817C95.668 199.153 95.8633 199.589 95.8633 200.126C95.8633 201.116 95.3587 201.752 94.3496 202.035V202.055C94.8965 202.113 95.3278 202.307 95.6436 202.636C95.9626 202.961 96.1221 203.368 96.1221 203.856C96.1221 204.537 95.8763 205.085 95.3848 205.502C94.8965 205.919 94.2454 206.127 93.4316 206.127C92.7155 206.127 92.1377 205.993 91.6982 205.727V204.735ZM99.6523 206V199.53C99.5026 199.68 99.2487 199.848 98.8906 200.033C98.5358 200.219 98.207 200.349 97.9043 200.424V199.486C98.3047 199.376 98.7327 199.2 99.1885 198.959C99.6442 198.715 99.9941 198.485 100.238 198.271H100.6V206H99.6523Z" fill="#202020"/>
<path d="M130.541 81.4365V86.4316H131.674V87.2227H130.541V89H129.613V87.2227H126.083V86.4756C126.711 85.7692 127.343 84.9554 127.978 84.0342C128.612 83.113 129.136 82.2471 129.55 81.4365H130.541ZM127.157 86.4316H129.613V82.8281C129.275 83.4368 128.912 84.0277 128.524 84.6006C128.137 85.1702 127.681 85.7806 127.157 86.4316Z" fill="#9A9999"/>
<path d="M125.783 118V111.53C125.633 111.68 125.38 111.848 125.021 112.033C124.667 112.219 124.338 112.349 124.035 112.424V111.486C124.436 111.376 124.864 111.2 125.319 110.959C125.775 110.715 126.125 110.485 126.369 110.271H126.73V118H125.783ZM131.652 118V111.53C131.503 111.68 131.249 111.848 130.891 112.033C130.536 112.219 130.207 112.349 129.904 112.424V111.486C130.305 111.376 130.733 111.2 131.188 110.959C131.644 110.715 131.994 110.485 132.238 110.271H132.6V118H131.652Z" fill="#9A9999"/>
<path d="M125.783 147V140.53C125.633 140.68 125.38 140.848 125.021 141.033C124.667 141.219 124.338 141.349 124.035 141.424V140.486C124.436 140.376 124.864 140.2 125.319 139.959C125.775 139.715 126.125 139.485 126.369 139.271H126.73V147H125.783ZM129.348 144.891C129.348 144.454 129.478 144.052 129.738 143.685C129.999 143.317 130.334 143.055 130.744 142.898C130.415 142.713 130.155 142.475 129.963 142.186C129.771 141.896 129.675 141.582 129.675 141.243C129.675 140.885 129.766 140.558 129.948 140.262C130.134 139.965 130.389 139.733 130.715 139.563C131.044 139.394 131.405 139.31 131.799 139.31C132.196 139.31 132.559 139.394 132.888 139.563C133.216 139.729 133.472 139.961 133.654 140.257C133.837 140.553 133.928 140.882 133.928 141.243C133.928 141.575 133.833 141.888 133.645 142.181C133.459 142.47 133.2 142.71 132.868 142.898C133.278 143.058 133.612 143.322 133.869 143.689C134.126 144.057 134.255 144.458 134.255 144.891C134.255 145.32 134.152 145.706 133.947 146.048C133.742 146.386 133.451 146.65 133.073 146.839C132.696 147.028 132.271 147.122 131.799 147.122C131.33 147.122 130.909 147.028 130.534 146.839C130.16 146.65 129.868 146.385 129.66 146.043C129.452 145.701 129.348 145.317 129.348 144.891ZM130.285 144.847C130.285 145.296 130.424 145.656 130.7 145.926C130.977 146.196 131.345 146.331 131.804 146.331C132.253 146.331 132.619 146.194 132.902 145.921C133.189 145.644 133.332 145.286 133.332 144.847C133.332 144.43 133.187 144.08 132.897 143.797C132.611 143.51 132.246 143.367 131.804 143.367C131.364 143.367 131.001 143.507 130.715 143.787C130.428 144.064 130.285 144.417 130.285 144.847ZM130.559 141.321C130.559 141.66 130.679 141.951 130.92 142.195C131.161 142.436 131.455 142.557 131.804 142.557C132.146 142.557 132.44 142.435 132.688 142.19C132.938 141.946 133.063 141.657 133.063 141.321C133.063 140.979 132.943 140.69 132.702 140.452C132.465 140.215 132.165 140.096 131.804 140.096C131.446 140.096 131.148 140.213 130.91 140.447C130.676 140.678 130.559 140.97 130.559 141.321Z" fill="#202020"/>
<path d="M127.165 171.419C127.165 171.012 127.036 170.693 126.779 170.462C126.522 170.228 126.172 170.11 125.729 170.11C125.417 170.11 125.101 170.19 124.782 170.35C124.463 170.509 124.165 170.737 123.889 171.033V170.105C124.136 169.848 124.416 169.651 124.729 169.515C125.044 169.378 125.414 169.31 125.837 169.31C126.521 169.31 127.071 169.493 127.487 169.861C127.904 170.226 128.112 170.721 128.112 171.346C128.112 171.902 127.984 172.384 127.727 172.791C127.473 173.198 127.036 173.615 126.418 174.041C125.786 174.477 125.363 174.79 125.148 174.979C124.937 175.167 124.789 175.348 124.704 175.521C124.619 175.693 124.577 175.903 124.577 176.15H128.337V177H123.581V176.624C123.581 176.188 123.64 175.818 123.757 175.516C123.877 175.21 124.074 174.913 124.348 174.627C124.621 174.337 125.048 173.991 125.627 173.587C126.219 173.17 126.623 172.806 126.838 172.493C127.056 172.177 127.165 171.819 127.165 171.419ZM134.016 174.666C134.016 175.405 133.77 176.001 133.278 176.453C132.79 176.906 132.132 177.132 131.306 177.132C130.596 177.132 130.067 177.026 129.719 176.814V175.838C130.23 176.17 130.751 176.336 131.281 176.336C131.809 176.336 132.233 176.191 132.556 175.901C132.881 175.608 133.044 175.221 133.044 174.739C133.044 174.257 132.875 173.883 132.536 173.616C132.201 173.346 131.726 173.211 131.11 173.211C130.635 173.211 130.207 173.232 129.826 173.274L130.104 169.437H133.64V170.276H130.91L130.754 172.42L131.442 172.391C132.243 172.391 132.871 172.591 133.327 172.991C133.786 173.388 134.016 173.947 134.016 174.666Z" fill="#202020"/>
<path d="M126.783 206V199.53C126.633 199.68 126.38 199.848 126.021 200.033C125.667 200.219 125.338 200.349 125.035 200.424V199.486C125.436 199.376 125.864 199.2 126.319 198.959C126.775 198.715 127.125 198.485 127.369 198.271H127.73V206H126.783Z" fill="#9A9999"/>
<path d="M163.146 86.666C163.146 87.4049 162.901 88.0007 162.409 88.4531C161.921 88.9056 161.263 89.1318 160.437 89.1318C159.727 89.1318 159.198 89.026 158.85 88.8145V87.8379C159.361 88.1699 159.882 88.3359 160.412 88.3359C160.939 88.3359 161.364 88.1911 161.687 87.9014C162.012 87.6084 162.175 87.221 162.175 86.7393C162.175 86.2575 162.006 85.8831 161.667 85.6162C161.332 85.346 160.856 85.2109 160.241 85.2109C159.766 85.2109 159.338 85.2321 158.957 85.2744L159.235 81.4365H162.771V82.2764H160.041L159.885 84.4199L160.573 84.3906C161.374 84.3906 162.002 84.5908 162.458 84.9912C162.917 85.3883 163.146 85.9466 163.146 86.666Z" fill="#9A9999"/>
<path d="M157.783 118V111.53C157.633 111.68 157.38 111.848 157.021 112.033C156.667 112.219 156.338 112.349 156.035 112.424V111.486C156.436 111.376 156.864 111.2 157.319 110.959C157.775 110.715 158.125 110.485 158.369 110.271H158.73V118H157.783ZM165.034 112.419C165.034 112.012 164.906 111.693 164.648 111.462C164.391 111.228 164.041 111.11 163.599 111.11C163.286 111.11 162.97 111.19 162.651 111.35C162.332 111.509 162.035 111.737 161.758 112.033V111.105C162.005 110.848 162.285 110.651 162.598 110.515C162.913 110.378 163.283 110.31 163.706 110.31C164.39 110.31 164.94 110.493 165.356 110.861C165.773 111.226 165.981 111.721 165.981 112.346C165.981 112.902 165.853 113.384 165.596 113.791C165.342 114.198 164.906 114.615 164.287 115.041C163.656 115.477 163.232 115.79 163.018 115.979C162.806 116.167 162.658 116.348 162.573 116.521C162.489 116.693 162.446 116.903 162.446 117.15H166.206V118H161.45V117.624C161.45 117.188 161.509 116.818 161.626 116.516C161.746 116.21 161.943 115.913 162.217 115.627C162.49 115.337 162.917 114.991 163.496 114.587C164.089 114.17 164.492 113.806 164.707 113.493C164.925 113.177 165.034 112.819 165.034 112.419Z" fill="#9A9999"/>
<path d="M157.783 147V140.53C157.633 140.68 157.38 140.848 157.021 141.033C156.667 141.219 156.338 141.349 156.035 141.424V140.486C156.436 140.376 156.864 140.2 157.319 139.959C157.775 139.715 158.125 139.485 158.369 139.271H158.73V147H157.783ZM161.772 145.975C162.189 146.215 162.638 146.336 163.12 146.336C163.797 146.336 164.321 146.069 164.692 145.535C165.067 145.001 165.254 144.243 165.254 143.26C165.247 143.266 165.241 143.266 165.234 143.26C164.902 143.891 164.344 144.207 163.56 144.207C162.925 144.207 162.399 143.989 161.982 143.553C161.566 143.117 161.357 142.55 161.357 141.854C161.357 141.111 161.585 140.503 162.041 140.027C162.497 139.549 163.088 139.31 163.813 139.31C164.565 139.31 165.153 139.606 165.576 140.198C165.999 140.787 166.211 141.647 166.211 142.776C166.211 144.173 165.938 145.247 165.391 145.999C164.844 146.751 164.087 147.127 163.12 147.127C162.59 147.127 162.14 147.041 161.772 146.868V145.975ZM162.324 141.731C162.324 142.239 162.454 142.643 162.715 142.942C162.975 143.239 163.335 143.387 163.794 143.387C164.191 143.387 164.525 143.252 164.795 142.981C165.065 142.708 165.2 142.378 165.2 141.99C165.2 141.447 165.065 140.997 164.795 140.643C164.528 140.285 164.175 140.105 163.735 140.105C163.328 140.105 162.992 140.26 162.725 140.569C162.458 140.879 162.324 141.266 162.324 141.731Z" fill="#202020"/>
<path d="M159.165 171.419C159.165 171.012 159.036 170.693 158.779 170.462C158.522 170.228 158.172 170.11 157.729 170.11C157.417 170.11 157.101 170.19 156.782 170.35C156.463 170.509 156.165 170.737 155.889 171.033V170.105C156.136 169.848 156.416 169.651 156.729 169.515C157.044 169.378 157.414 169.31 157.837 169.31C158.521 169.31 159.071 169.493 159.487 169.861C159.904 170.226 160.112 170.721 160.112 171.346C160.112 171.902 159.984 172.384 159.727 172.791C159.473 173.198 159.036 173.615 158.418 174.041C157.786 174.477 157.363 174.79 157.148 174.979C156.937 175.167 156.789 175.348 156.704 175.521C156.619 175.693 156.577 175.903 156.577 176.15H160.337V177H155.581V176.624C155.581 176.188 155.64 175.818 155.757 175.516C155.877 175.21 156.074 174.913 156.348 174.627C156.621 174.337 157.048 173.991 157.627 173.587C158.219 173.17 158.623 172.806 158.838 172.493C159.056 172.177 159.165 171.819 159.165 171.419ZM165.84 170.408C165.446 170.206 165.034 170.105 164.604 170.105C163.95 170.105 163.424 170.39 163.027 170.96C162.63 171.53 162.428 172.308 162.422 173.294H162.446C162.804 172.601 163.376 172.254 164.16 172.254C164.814 172.254 165.337 172.467 165.728 172.894C166.118 173.32 166.313 173.886 166.313 174.593C166.313 175.332 166.087 175.939 165.635 176.414C165.186 176.889 164.611 177.127 163.911 177.127C163.143 177.127 162.539 176.827 162.1 176.229C161.663 175.626 161.445 174.773 161.445 173.67C161.445 172.335 161.732 171.276 162.305 170.491C162.881 169.703 163.638 169.31 164.575 169.31C165.112 169.31 165.534 169.383 165.84 169.529V170.408ZM162.48 174.524C162.48 175.022 162.612 175.449 162.876 175.804C163.143 176.159 163.496 176.336 163.936 176.336C164.352 176.336 164.691 176.183 164.951 175.877C165.212 175.571 165.342 175.177 165.342 174.695C165.342 174.174 165.218 173.769 164.971 173.479C164.727 173.19 164.378 173.045 163.926 173.045C163.496 173.045 163.148 173.191 162.881 173.484C162.614 173.777 162.48 174.124 162.48 174.524Z" fill="#202020"/>
<path d="M160.165 200.419C160.165 200.012 160.036 199.693 159.779 199.462C159.522 199.228 159.172 199.11 158.729 199.11C158.417 199.11 158.101 199.19 157.782 199.35C157.463 199.509 157.165 199.737 156.889 200.033V199.105C157.136 198.848 157.416 198.651 157.729 198.515C158.044 198.378 158.414 198.31 158.837 198.31C159.521 198.31 160.071 198.493 160.487 198.861C160.904 199.226 161.112 199.721 161.112 200.346C161.112 200.902 160.984 201.384 160.727 201.791C160.473 202.198 160.036 202.615 159.418 203.041C158.786 203.477 158.363 203.79 158.148 203.979C157.937 204.167 157.789 204.348 157.704 204.521C157.619 204.693 157.577 204.903 157.577 205.15H161.337V206H156.581V205.624C156.581 205.188 156.64 204.818 156.757 204.516C156.877 204.21 157.074 203.913 157.348 203.627C157.621 203.337 158.048 202.991 158.627 202.587C159.219 202.17 159.623 201.806 159.838 201.493C160.056 201.177 160.165 200.819 160.165 200.419Z" fill="#9A9999"/>
<path d="M194.971 82.4082C194.577 82.2064 194.165 82.1055 193.735 82.1055C193.081 82.1055 192.555 82.3903 192.158 82.96C191.761 83.5296 191.559 84.3076 191.553 85.2939H191.577C191.935 84.6006 192.507 84.2539 193.291 84.2539C193.945 84.2539 194.468 84.4671 194.858 84.8936C195.249 85.32 195.444 85.8864 195.444 86.5928C195.444 87.3317 195.218 87.9388 194.766 88.4141C194.316 88.8893 193.742 89.127 193.042 89.127C192.274 89.127 191.67 88.8275 191.23 88.2285C190.794 87.6263 190.576 86.7734 190.576 85.6699C190.576 84.3353 190.863 83.2757 191.436 82.4912C192.012 81.7035 192.769 81.3096 193.706 81.3096C194.243 81.3096 194.665 81.3828 194.971 81.5293V82.4082ZM191.611 86.5244C191.611 87.0225 191.743 87.4489 192.007 87.8037C192.274 88.1585 192.627 88.3359 193.066 88.3359C193.483 88.3359 193.822 88.1829 194.082 87.877C194.342 87.571 194.473 87.1771 194.473 86.6953C194.473 86.1745 194.349 85.7692 194.102 85.4795C193.857 85.1898 193.509 85.0449 193.057 85.0449C192.627 85.0449 192.279 85.1914 192.012 85.4844C191.745 85.7773 191.611 86.124 191.611 86.5244Z" fill="#9A9999"/>
<path d="M189.783 118V111.53C189.633 111.68 189.38 111.848 189.021 112.033C188.667 112.219 188.338 112.349 188.035 112.424V111.486C188.436 111.376 188.864 111.2 189.319 110.959C189.775 110.715 190.125 110.485 190.369 110.271H190.73V118H189.783ZM193.567 116.735C194.085 117.136 194.669 117.336 195.32 117.336C195.841 117.336 196.253 117.209 196.556 116.955C196.862 116.698 197.015 116.354 197.015 115.925C197.015 114.968 196.329 114.489 194.959 114.489H194.329V113.698H194.93C196.144 113.698 196.751 113.249 196.751 112.351C196.751 111.521 196.287 111.105 195.359 111.105C194.829 111.105 194.329 111.285 193.86 111.643V110.739C194.355 110.453 194.933 110.31 195.594 110.31C196.238 110.31 196.756 110.479 197.146 110.817C197.537 111.153 197.732 111.589 197.732 112.126C197.732 113.116 197.228 113.752 196.219 114.035V114.055C196.766 114.113 197.197 114.307 197.513 114.636C197.832 114.961 197.991 115.368 197.991 115.856C197.991 116.537 197.745 117.085 197.254 117.502C196.766 117.919 196.115 118.127 195.301 118.127C194.585 118.127 194.007 117.993 193.567 117.727V116.735Z" fill="#9A9999"/>
<path d="M191.165 141.419C191.165 141.012 191.036 140.693 190.779 140.462C190.522 140.228 190.172 140.11 189.729 140.11C189.417 140.11 189.101 140.19 188.782 140.35C188.463 140.509 188.165 140.737 187.889 141.033V140.105C188.136 139.848 188.416 139.651 188.729 139.515C189.044 139.378 189.414 139.31 189.837 139.31C190.521 139.31 191.071 139.493 191.487 139.861C191.904 140.226 192.112 140.721 192.112 141.346C192.112 141.902 191.984 142.384 191.727 142.791C191.473 143.198 191.036 143.615 190.418 144.041C189.786 144.477 189.363 144.79 189.148 144.979C188.937 145.167 188.789 145.348 188.704 145.521C188.619 145.693 188.577 145.903 188.577 146.15H192.337V147H187.581V146.624C187.581 146.188 187.64 145.818 187.757 145.516C187.877 145.21 188.074 144.913 188.348 144.627C188.621 144.337 189.048 143.991 189.627 143.587C190.219 143.17 190.623 142.806 190.838 142.493C191.056 142.177 191.165 141.819 191.165 141.419ZM193.313 143.367C193.313 142.033 193.535 141.023 193.978 140.34C194.42 139.653 195.062 139.31 195.901 139.31C197.503 139.31 198.304 140.602 198.304 143.187C198.304 144.463 198.077 145.439 197.625 146.116C197.176 146.79 196.544 147.127 195.73 147.127C194.962 147.127 194.367 146.806 193.943 146.165C193.523 145.524 193.313 144.591 193.313 143.367ZM194.29 143.323C194.29 145.332 194.799 146.336 195.818 146.336C196.821 146.336 197.322 145.315 197.322 143.274C197.322 141.162 196.831 140.105 195.848 140.105C194.809 140.105 194.29 141.178 194.29 143.323Z" fill="#202020"/>
<path d="M191.165 171.419C191.165 171.012 191.036 170.693 190.779 170.462C190.522 170.228 190.172 170.11 189.729 170.11C189.417 170.11 189.101 170.19 188.782 170.35C188.463 170.509 188.165 170.737 187.889 171.033V170.105C188.136 169.848 188.416 169.651 188.729 169.515C189.044 169.378 189.414 169.31 189.837 169.31C190.521 169.31 191.071 169.493 191.487 169.861C191.904 170.226 192.112 170.721 192.112 171.346C192.112 171.902 191.984 172.384 191.727 172.791C191.473 173.198 191.036 173.615 190.418 174.041C189.786 174.477 189.363 174.79 189.148 174.979C188.937 175.167 188.789 175.348 188.704 175.521C188.619 175.693 188.577 175.903 188.577 176.15H192.337V177H187.581V176.624C187.581 176.188 187.64 175.818 187.757 175.516C187.877 175.21 188.074 174.913 188.348 174.627C188.621 174.337 189.048 173.991 189.627 173.587C190.219 173.17 190.623 172.806 190.838 172.493C191.056 172.177 191.165 171.819 191.165 171.419ZM198.216 170.027C197.422 171.414 196.797 172.698 196.341 173.88C195.888 175.058 195.608 176.098 195.501 177H194.505C194.625 176.111 194.91 175.097 195.359 173.958C195.809 172.819 196.409 171.593 197.161 170.281H193.411V169.437H198.216V170.027Z" fill="#202020"/>
<path d="M188.698 204.735C189.216 205.136 189.8 205.336 190.451 205.336C190.972 205.336 191.384 205.209 191.687 204.955C191.993 204.698 192.146 204.354 192.146 203.925C192.146 202.968 191.46 202.489 190.09 202.489H189.46V201.698H190.061C191.275 201.698 191.882 201.249 191.882 200.351C191.882 199.521 191.418 199.105 190.49 199.105C189.96 199.105 189.46 199.285 188.991 199.643V198.739C189.486 198.453 190.064 198.31 190.725 198.31C191.369 198.31 191.887 198.479 192.277 198.817C192.668 199.153 192.863 199.589 192.863 200.126C192.863 201.116 192.359 201.752 191.35 202.035V202.055C191.896 202.113 192.328 202.307 192.644 202.636C192.963 202.961 193.122 203.368 193.122 203.856C193.122 204.537 192.876 205.085 192.385 205.502C191.896 205.919 191.245 206.127 190.432 206.127C189.715 206.127 189.138 205.993 188.698 205.727V204.735Z" fill="#9A9999"/>
<path d="M227.347 82.0273C226.552 83.4141 225.927 84.6982 225.472 85.8799C225.019 87.0583 224.739 88.0983 224.632 89H223.636C223.756 88.1113 224.041 87.0973 224.49 85.958C224.939 84.8187 225.54 83.5931 226.292 82.2812H222.542V81.4365H227.347V82.0273Z" fill="#9A9999"/>
<path d="M221.783 118V111.53C221.633 111.68 221.38 111.848 221.021 112.033C220.667 112.219 220.338 112.349 220.035 112.424V111.486C220.436 111.376 220.864 111.2 221.319 110.959C221.775 110.715 222.125 110.485 222.369 110.271H222.73V118H221.783ZM229.41 110.437V115.432H230.543V116.223H229.41V118H228.482V116.223H224.952V115.476C225.58 114.769 226.212 113.955 226.847 113.034C227.481 112.113 228.006 111.247 228.419 110.437H229.41ZM226.026 115.432H228.482V111.828C228.144 112.437 227.781 113.028 227.394 113.601C227.006 114.17 226.55 114.781 226.026 115.432Z" fill="#9A9999"/>
<path d="M223.165 141.419C223.165 141.012 223.036 140.693 222.779 140.462C222.522 140.228 222.172 140.11 221.729 140.11C221.417 140.11 221.101 140.19 220.782 140.35C220.463 140.509 220.165 140.737 219.889 141.033V140.105C220.136 139.848 220.416 139.651 220.729 139.515C221.044 139.378 221.414 139.31 221.837 139.31C222.521 139.31 223.071 139.493 223.487 139.861C223.904 140.226 224.112 140.721 224.112 141.346C224.112 141.902 223.984 142.384 223.727 142.791C223.473 143.198 223.036 143.615 222.418 144.041C221.786 144.477 221.363 144.79 221.148 144.979C220.937 145.167 220.789 145.348 220.704 145.521C220.619 145.693 220.577 145.903 220.577 146.15H224.337V147H219.581V146.624C219.581 146.188 219.64 145.818 219.757 145.516C219.877 145.21 220.074 144.913 220.348 144.627C220.621 144.337 221.048 143.991 221.627 143.587C222.219 143.17 222.623 142.806 222.838 142.493C223.056 142.177 223.165 141.819 223.165 141.419ZM227.652 147V140.53C227.503 140.68 227.249 140.848 226.891 141.033C226.536 141.219 226.207 141.349 225.904 141.424V140.486C226.305 140.376 226.733 140.2 227.188 139.959C227.644 139.715 227.994 139.485 228.238 139.271H228.6V147H227.652Z" fill="#202020"/>
<path d="M223.165 171.419C223.165 171.012 223.036 170.693 222.779 170.462C222.522 170.228 222.172 170.11 221.729 170.11C221.417 170.11 221.101 170.19 220.782 170.35C220.463 170.509 220.165 170.737 219.889 171.033V170.105C220.136 169.848 220.416 169.651 220.729 169.515C221.044 169.378 221.414 169.31 221.837 169.31C222.521 169.31 223.071 169.493 223.487 169.861C223.904 170.226 224.112 170.721 224.112 171.346C224.112 171.902 223.984 172.384 223.727 172.791C223.473 173.198 223.036 173.615 222.418 174.041C221.786 174.477 221.363 174.79 221.148 174.979C220.937 175.167 220.789 175.348 220.704 175.521C220.619 175.693 220.577 175.903 220.577 176.15H224.337V177H219.581V176.624C219.581 176.188 219.64 175.818 219.757 175.516C219.877 175.21 220.074 174.913 220.348 174.627C220.621 174.337 221.048 173.991 221.627 173.587C222.219 173.17 222.623 172.806 222.838 172.493C223.056 172.177 223.165 171.819 223.165 171.419ZM225.348 174.891C225.348 174.454 225.478 174.052 225.738 173.685C225.999 173.317 226.334 173.055 226.744 172.898C226.415 172.713 226.155 172.475 225.963 172.186C225.771 171.896 225.675 171.582 225.675 171.243C225.675 170.885 225.766 170.558 225.948 170.262C226.134 169.965 226.389 169.733 226.715 169.563C227.044 169.394 227.405 169.31 227.799 169.31C228.196 169.31 228.559 169.394 228.888 169.563C229.216 169.729 229.472 169.961 229.654 170.257C229.837 170.553 229.928 170.882 229.928 171.243C229.928 171.575 229.833 171.888 229.645 172.181C229.459 172.47 229.2 172.71 228.868 172.898C229.278 173.058 229.612 173.322 229.869 173.689C230.126 174.057 230.255 174.458 230.255 174.891C230.255 175.32 230.152 175.706 229.947 176.048C229.742 176.386 229.451 176.65 229.073 176.839C228.696 177.028 228.271 177.122 227.799 177.122C227.33 177.122 226.909 177.028 226.534 176.839C226.16 176.65 225.868 176.385 225.66 176.043C225.452 175.701 225.348 175.317 225.348 174.891ZM226.285 174.847C226.285 175.296 226.424 175.656 226.7 175.926C226.977 176.196 227.345 176.331 227.804 176.331C228.253 176.331 228.619 176.194 228.902 175.921C229.189 175.644 229.332 175.286 229.332 174.847C229.332 174.43 229.187 174.08 228.897 173.797C228.611 173.51 228.246 173.367 227.804 173.367C227.364 173.367 227.001 173.507 226.715 173.787C226.428 174.064 226.285 174.417 226.285 174.847ZM226.559 171.321C226.559 171.66 226.679 171.951 226.92 172.195C227.161 172.436 227.455 172.557 227.804 172.557C228.146 172.557 228.44 172.435 228.688 172.19C228.938 171.946 229.063 171.657 229.063 171.321C229.063 170.979 228.943 170.69 228.702 170.452C228.465 170.215 228.165 170.096 227.804 170.096C227.446 170.096 227.148 170.213 226.91 170.447C226.676 170.678 226.559 170.97 226.559 171.321Z" fill="#202020"/>
<path d="M224.541 198.437V203.432H225.674V204.223H224.541V206H223.613V204.223H220.083V203.476C220.711 202.769 221.343 201.955 221.978 201.034C222.612 200.113 223.136 199.247 223.55 198.437H224.541ZM221.157 203.432H223.613V199.828C223.275 200.437 222.912 201.028 222.524 201.601C222.137 202.17 221.681 202.781 221.157 203.432Z" fill="#9A9999"/>
<circle cx="65" cy="151" r="1" fill="white"/>
</g>
<defs>
<filter id="filter0_d_128_430" x="0" y="0" width="256" height="268" filterUnits="userSpaceOnUse" color-interpolation-filters="sRGB">
<feFlood flood-opacity="0" result="BackgroundImageFix"/>
<feColorMatrix in="SourceAlpha" type="matrix" values="0 0 0 0 0 0 0 0 0 0 0 0 0 0 0 0 0 0 127 0" result="hardAlpha"/>
<feOffset dy="4"/>
<feGaussianBlur stdDeviation="2"/>
<feComposite in2="hardAlpha" operator="out"/>
<feColorMatrix type="matrix" values="0 0 0 0 0 0 0 0 0 0 0 0 0 0 0 0 0 0 0.25 0"/>
<feBlend mode="normal" in2="BackgroundImageFix" result="effect1_dropShadow_128_430"/>
<feBlend mode="normal" in="SourceGraphic" in2="effect1_dropShadow_128_430" result="shape"/>
</filter>
<linearGradient id="paint0_linear_128_430" x1="87" y1="77.5" x2="105.5" y2="94" gradientUnits="userSpaceOnUse">
<stop stop-color="#3479FF"/>
<stop offset="1" stop-color="#B5B5B5" stop-opacity="0"/>
</linearGradient>
<linearGradient id="paint1_linear_128_430" x1="151" y1="77.5" x2="169.5" y2="94" gradientUnits="userSpaceOnUse">
<stop stop-color="#3479FF"/>
<stop offset="1" stop-color="#B5B5B5" stop-opacity="0"/>
</linearGradient>
<linearGradient id="paint2_linear_128_430" x1="183" y1="106.5" x2="201.5" y2="123" gradientUnits="userSpaceOnUse">
<stop stop-color="#FF8B36"/>
<stop offset="1" stop-color="#B5B5B5" stop-opacity="0"/>
</linearGradient>
<linearGradient id="paint3_linear_128_430" x1="23" y1="135.5" x2="41.5" y2="152" gradientUnits="userSpaceOnUse">
<stop stop-color="#4987FF"/>
<stop offset="1" stop-color="#B5B5B5" stop-opacity="0"/>
</linearGradient>
<linearGradient id="paint4_linear_128_430" x1="119" y1="106.5" x2="137.5" y2="123" gradientUnits="userSpaceOnUse">
<stop stop-color="#DD56FF"/>
<stop offset="1" stop-color="#B5B5B5" stop-opacity="0"/>
</linearGradient>
<linearGradient id="paint5_linear_128_430" x1="23" y1="106.5" x2="41.5" y2="123" gradientUnits="userSpaceOnUse">
<stop stop-color="#D83EFF"/>
<stop offset="1" stop-color="#B5B5B5" stop-opacity="0"/>
</linearGradient>
<linearGradient id="paint6_linear_128_430" x1="214.917" y1="78.5" x2="233.311" y2="94.222" gradientUnits="userSpaceOnUse">
<stop stop-color="#5CFF41"/>
<stop offset="1" stop-color="#B5B5B5" stop-opacity="0"/>
</linearGradient>
</defs>
</svg>
