<svg width="165" height="142" viewBox="0 0 165 142" fill="none" xmlns="http://www.w3.org/2000/svg">
<path d="M37 18.4074C37 8.68473 45.6001 1.20939 55.2281 2.56332L98.7719 8.68668C100.25 8.89454 101.75 8.89454 103.228 8.68668L146.772 2.56332C156.4 1.20939 165 8.68474 165 18.4074V110.155C165 119.68 156.729 127.095 147.26 126.06L102.74 121.19C101.583 121.064 100.417 121.064 99.2604 121.19L54.7396 126.06C45.2709 127.095 37 119.68 37 110.155V18.4074Z" fill="#0AE17A"/>
<g clip-path="url(#clip0_184_2849)">
<path d="M0 60.1245C0 50.5005 8.43491 43.0544 17.9846 44.2481L62.0154 49.7519C63.3334 49.9167 64.6666 49.9167 65.9846 49.7519L110.015 44.2481C119.565 43.0544 128 50.5005 128 60.1245V151.875C128 161.499 119.565 168.946 110.015 167.752L65.9846 162.248C64.6666 162.083 63.3334 162.083 62.0154 162.248L17.9846 167.752C8.43491 168.946 0 161.499 0 151.875V60.1245Z" fill="#0AE17A"/>
<path d="M-4.88951 103C-8.47141 107 -7.44348 116.9 -2.19008 114.5C3.06332 112.1 3.51805 111.5 5.25902 113C7 114.5 1.89763 127 4 128.5C6.10237 130 7.61166 129.578 15 126.5C21 124 15.3829 136.5 12 145" stroke="#5A9BB1" stroke-width="3" stroke-linecap="round" stroke-linejoin="round"/>
<path d="M29.058 144C33.4713 131.293 42.2403 110.388 32.7714 113.905C22.413 117.752 21.6046 121.796 19.0941 118.585C16.5836 115.375 21.936 100.72 21.1983 99.3354C20.4606 97.9507 18.0569 93.7378 11.2033 97.3257C4.34974 100.914 0.217791 93.2574 4.89074 87.2776C8.15632 83.0908 14.6077 71.301 9.58764 69.6933C4.5676 68.0856 -0.720452 69.6437 -3 70.6485" stroke="#5A9BB1" stroke-width="3" stroke-linecap="round" stroke-linejoin="round"/>
<path d="M56.8896 101C52.697 109.81 43.9114 125.804 52.9068 123.366C62.7473 120.698 63.5153 117.895 65.9003 120.121C68.2852 122.347 63.2004 132.507 63.9013 133.467C64.6021 134.428 66.8856 137.348 73.3965 134.861C79.9074 132.373 83.8327 137.682 79.3934 141.828C76.2911 144.73 70.1624 152.905 74.9314 154.019C79.7004 155.134 84.7241 154.054 86.8896 153.357" stroke="#5A9BB1" stroke-width="3" stroke-linecap="round" stroke-linejoin="round"/>
</g>
<ellipse cx="125" cy="28" rx="5" ry="8" fill="#002E00"/>
<ellipse cx="147" cy="28" rx="5" ry="8" fill="#002E00"/>
<path d="M124.452 44.8727C124.429 42.9468 126.512 41.7228 128.199 42.6513C132.88 45.2267 138.564 45.3764 143.356 43.0146L144.624 42.39C146.344 41.5422 148.36 42.7799 148.382 44.6975C148.394 45.701 147.828 46.622 146.928 47.0657L145.631 47.7051C139.456 50.7485 132.183 50.5844 126.152 47.2658L125.754 47.0469C124.96 46.6099 124.462 45.7792 124.452 44.8727Z" fill="#002E00"/>
<defs>
<clipPath id="clip0_184_2849">
<rect width="128" height="128" fill="white" transform="translate(0 42)"/>
</clipPath>
</defs>
</svg>
