<svg width="214" height="195" viewBox="0 0 214 195" fill="none" xmlns="http://www.w3.org/2000/svg">
<path d="M78.2072 68.5156C80.5099 63.2836 85.4288 59.6776 91.1112 59.0558L173.728 50.0155C179.41 49.3937 184.993 51.8507 188.372 56.4608L237.51 123.489C240.89 128.099 241.553 134.162 239.25 139.394L205.771 215.462C203.468 220.694 198.549 224.3 192.867 224.922L110.25 233.962C104.568 234.584 98.9854 232.127 95.6058 227.517L46.4683 160.489C43.0886 155.879 42.4252 149.816 44.7279 144.584L78.2072 68.5156Z" fill="#006BFF"/>
<ellipse cx="66" cy="134" rx="5" ry="8" fill="#303030"/>
<ellipse cx="88" cy="134" rx="5" ry="8" fill="#303030"/>
<path d="M87 150C87 151.272 86.3151 152.499 85.0569 153.443C83.7983 154.387 82.0137 155 80 155C77.9863 155 76.2017 154.387 74.9431 153.443C73.6849 152.499 73 151.272 73 150C73 148.728 73.6849 147.501 74.9431 146.557C76.2017 145.613 77.9863 145 80 145C82.0137 145 83.7983 145.613 85.0569 146.557C86.3151 147.501 87 148.728 87 150Z" stroke="#303030" stroke-width="2"/>
<path d="M142.182 132.618C148.075 116.35 155.469 83.0283 141.218 80.382C128.02 78.0963 137.211 99.6305 143.456 110.683C146.416 116.817 159.822 129.919 167.905 128.959C175.989 127.998 175.736 109.041 176.356 99.5676C174.422 90.3213 168.27 71.7637 159.133 71.504C149.996 71.2442 162.187 90.1693 169.425 99.6644C174.712 104.989 187.667 115.339 197.195 114.14C209.105 112.641 193.739 69.0524 182.27 66.7607C170.8 64.4691 176.996 77.8535 191.832 86.9093C206.668 95.9652 214.086 98.3438 219.26 100.512" stroke="#2D96FF" stroke-width="3" stroke-linecap="round" stroke-linejoin="round"/>
</svg>
