<svg width="187" height="173" viewBox="0 0 187 173" fill="none" xmlns="http://www.w3.org/2000/svg">
<path fill-rule="evenodd" clip-rule="evenodd" d="M87.9929 56.0045C64.791 53.8598 42.4098 68.6516 35.9024 91.6887L28.618 117.477C21.4117 142.988 36.401 168.951 62.0977 175.465L169.259 202.634C170.784 203.021 172.35 202.481 173.342 201.372C173.814 200.895 174.175 200.298 174.368 199.615L204.397 93.3092C211.603 67.7978 196.613 41.8354 170.917 35.3205L144.942 28.735C121.737 22.852 97.7365 34.8388 87.9929 56.0045Z" fill="#FF93D4"/>
<path d="M117.177 104.497C117.523 102.943 116.112 101.569 114.568 101.955C110.189 103.052 105.552 101.922 102.17 98.934L101.768 98.5793C100.456 97.4202 98.3811 98.0942 98.0006 99.8031L97.9269 100.134C97.7294 101.021 98.0287 101.945 98.7085 102.548L99.7408 103.463C103.944 107.19 109.762 108.549 115.187 107.089C116.109 106.841 116.82 106.1 117.028 105.168L117.177 104.497Z" fill="#852555"/>
<path d="M144.729 111.153C145.075 109.599 143.664 108.224 142.12 108.611C137.742 109.708 133.105 108.577 129.722 105.59L129.32 105.235C128.008 104.076 125.933 104.75 125.553 106.459L125.479 106.79C125.282 107.677 125.581 108.601 126.261 109.203L127.293 110.119C131.496 113.846 137.314 115.205 142.739 113.745C143.661 113.497 144.372 112.756 144.58 111.824L144.729 111.153Z" fill="#852555"/>
<path d="M129.266 123.593C129.75 121.873 128.184 120.278 126.456 120.73L125.864 120.885C120.28 122.346 114.341 120.714 110.289 116.604L110.055 116.367C108.801 115.095 106.641 115.652 106.157 117.371C105.93 118.176 106.153 119.041 106.74 119.636L107.093 119.994C112.225 125.198 119.744 127.265 126.815 125.415L127.626 125.203C128.42 124.995 129.044 124.382 129.266 123.593Z" fill="#852555"/>
<path d="M178.313 153.414C179.415 151.193 182.585 151.193 183.687 153.414L184.352 154.754C185.019 156.097 186.575 156.742 187.996 156.263L189.414 155.786C191.764 154.995 194.005 157.236 193.214 159.586L192.737 161.004C192.258 162.425 192.903 163.981 194.246 164.648L195.586 165.313C197.807 166.415 197.807 169.585 195.586 170.687L194.246 171.352C192.903 172.019 192.258 173.575 192.737 174.996L193.214 176.414C194.005 178.764 191.764 181.005 189.414 180.214L187.996 179.737C186.575 179.258 185.019 179.903 184.352 181.246L183.687 182.586C182.585 184.807 179.415 184.807 178.313 182.586L177.648 181.246C176.981 179.903 175.425 179.258 174.004 179.737L172.586 180.214C170.236 181.005 167.995 178.764 168.786 176.414L169.263 174.996C169.742 173.575 169.097 172.019 167.754 171.352L166.414 170.687C164.193 169.585 164.193 166.415 166.414 165.313L167.754 164.648C169.097 163.981 169.742 162.425 169.263 161.004L168.786 159.586C167.995 157.236 170.236 154.995 172.586 155.786L174.004 156.263C175.425 156.742 176.981 156.097 177.648 154.754L178.313 153.414Z" fill="#FF853B"/>
<path d="M40.2085 131.61C40.9436 130.128 43.0564 130.128 43.7915 131.61L45.7399 135.535C46.1844 136.431 47.2219 136.861 48.1694 136.542L52.3231 135.143C53.8902 134.616 55.3841 136.11 54.8566 137.677L53.4585 141.831C53.1395 142.778 53.5693 143.816 54.4648 144.26L58.3905 146.209C59.8716 146.944 59.8716 149.056 58.3905 149.791L54.4648 151.74C53.5693 152.184 53.1395 153.222 53.4585 154.169L54.8566 158.323C55.3841 159.89 53.8902 161.384 52.3231 160.857L48.1694 159.458C47.2219 159.14 46.1844 159.569 45.7399 160.465L43.7915 164.39C43.0564 165.872 40.9436 165.872 40.2085 164.39L38.2601 160.465C37.8156 159.569 36.7781 159.14 35.8306 159.458L31.6769 160.857C30.1098 161.384 28.6159 159.89 29.1434 158.323L30.5415 154.169C30.8605 153.222 30.4308 152.184 29.5352 151.74L25.6095 149.791C24.1284 149.056 24.1284 146.944 25.6095 146.209L29.5352 144.26C30.4307 143.816 30.8605 142.778 30.5416 141.831L29.1434 137.677C28.6159 136.11 30.1098 134.616 31.6769 135.143L35.8306 136.542C36.7781 136.86 37.8156 136.431 38.2601 135.535L40.2085 131.61Z" fill="#FF853B"/>
<path d="M85.2085 36.6095C85.9436 35.1284 88.0564 35.1284 88.7915 36.6095L90.7399 40.5352C91.1844 41.4307 92.2219 41.8605 93.1694 41.5416L97.3231 40.1434C98.8902 39.6159 100.384 41.1098 99.8566 42.6769L98.4585 46.8306C98.1395 47.7781 98.5693 48.8156 99.4648 49.2601L103.39 51.2085C104.872 51.9436 104.872 54.0564 103.39 54.7915L99.4648 56.7399C98.5693 57.1844 98.1395 58.2219 98.4585 59.1694L99.8566 63.3231C100.384 64.8902 98.8902 66.3841 97.3231 65.8566L93.1694 64.4585C92.2219 64.1395 91.1844 64.5693 90.7399 65.4648L88.7915 69.3905C88.0564 70.8716 85.9436 70.8716 85.2085 69.3905L83.2601 65.4648C82.8156 64.5693 81.7781 64.1395 80.8306 64.4585L76.6769 65.8566C75.1098 66.3841 73.6159 64.8902 74.1434 63.3231L75.5415 59.1694C75.8605 58.2219 75.4308 57.1844 74.5352 56.7399L70.6095 54.7915C69.1284 54.0564 69.1284 51.9436 70.6095 51.2085L74.5352 49.2601C75.4307 48.8156 75.8605 47.7781 75.5416 46.8306L74.1434 42.6769C73.6159 41.1098 75.1098 39.6159 76.6769 40.1434L80.8306 41.5415C81.7781 41.8605 82.8156 41.4308 83.2601 40.5352L85.2085 36.6095Z" fill="#FF853C"/>
<path d="M169.209 22.6095C169.944 21.1284 172.056 21.1284 172.791 22.6095L174.74 26.5352C175.184 27.4307 176.222 27.8605 177.169 27.5416L181.323 26.1434C182.89 25.6159 184.384 27.1098 183.857 28.6769L182.458 32.8306C182.14 33.7781 182.569 34.8156 183.465 35.2601L187.39 37.2085C188.872 37.9436 188.872 40.0564 187.39 40.7915L183.465 42.7399C182.569 43.1844 182.14 44.2219 182.458 45.1694L183.857 49.3231C184.384 50.8902 182.89 52.3841 181.323 51.8566L177.169 50.4585C176.222 50.1395 175.184 50.5693 174.74 51.4648L172.791 55.3905C172.056 56.8716 169.944 56.8716 169.209 55.3905L167.26 51.4648C166.816 50.5693 165.778 50.1395 164.831 50.4585L160.677 51.8566C159.11 52.3841 157.616 50.8902 158.143 49.3231L159.542 45.1694C159.86 44.2219 159.431 43.1844 158.535 42.7399L154.61 40.7915C153.128 40.0564 153.128 37.9436 154.61 37.2085L158.535 35.2601C159.431 34.8156 159.861 33.7781 159.542 32.8306L158.143 28.6769C157.616 27.1098 159.11 25.6159 160.677 26.1434L164.831 27.5415C165.778 27.8605 166.816 27.4308 167.26 26.5352L169.209 22.6095Z" fill="#FF853B"/>
</svg>
