<svg width="149" height="154" viewBox="0 0 149 154" fill="none" xmlns="http://www.w3.org/2000/svg">
<circle cx="90" cy="124" r="63" fill="#B35FF5"/>
<circle cx="101" cy="66" r="63" fill="#B35FF5"/>
<circle cx="63" cy="74" r="63" fill="#B35FF5"/>
<path d="M120.691 6.41306C119.688 5.83417 118.582 5.62727 117.563 5.75324C116.794 5.84815 115.863 5.31056 115.561 4.59788C115.161 3.65196 114.429 2.79763 113.426 2.2189C111.02 0.829901 108.388 2.06934 107.233 4.07005C104.498 8.80794 109.093 16.9209 109.29 17.2641C109.335 17.3429 109.399 17.4062 109.475 17.4502C109.551 17.4941 109.638 17.5181 109.729 17.5178C110.125 17.5168 119.448 17.4396 122.184 12.7017C123.339 10.7011 123.096 7.80182 120.691 6.41306Z" fill="#F79F81"/>
<path d="M120.691 49.4131C119.688 48.8342 118.582 48.6273 117.563 48.7532C116.794 48.8482 115.863 48.3106 115.561 47.5979C115.161 46.652 114.429 45.7976 113.426 45.2189C111.02 43.8299 108.388 45.0693 107.233 47.0701C104.498 51.8079 109.093 59.9209 109.29 60.2641C109.335 60.3429 109.399 60.4062 109.475 60.4502C109.551 60.4941 109.638 60.5181 109.729 60.5178C110.125 60.5168 119.448 60.4396 122.184 55.7017C123.339 53.7011 123.096 50.8018 120.691 49.4131Z" fill="#F79F81"/>
<path d="M70.6907 35.4131C69.6881 34.8342 68.5821 34.6273 67.5625 34.7532C66.7944 34.8482 65.8632 34.3106 65.5614 33.5979C65.1607 32.652 64.4286 31.7976 63.4263 31.2189C61.0204 29.8299 58.3883 31.0693 57.2332 33.0701C54.4977 37.8079 59.0927 45.9209 59.2896 46.2641C59.3348 46.3429 59.3991 46.4062 59.4752 46.4502C59.5513 46.4941 59.6383 46.5181 59.7291 46.5178C60.1248 46.5168 69.4483 46.4396 72.1837 41.7017C73.3388 39.7011 73.0962 36.8018 70.6907 35.4131Z" fill="#F79F81"/>
<path d="M97.6907 22.4131C96.6881 21.8342 95.5821 21.6273 94.5625 21.7532C93.7944 21.8482 92.8632 21.3106 92.5614 20.5979C92.1607 19.652 91.4286 18.7976 90.4263 18.2189C88.0204 16.8299 85.3883 18.0693 84.2332 20.0701C81.4977 24.8079 86.0927 32.9209 86.2896 33.2641C86.3348 33.3429 86.3991 33.4062 86.4752 33.4502C86.5513 33.4941 86.6383 33.5181 86.7291 33.5178C87.1248 33.5168 96.4483 33.4396 99.1837 28.7017C100.339 26.7011 100.096 23.8018 97.6907 22.4131Z" fill="#F79F81"/>
<path d="M74.6907 11.4131C73.6881 10.8342 72.5821 10.6273 71.5625 10.7532C70.7944 10.8482 69.8632 10.3106 69.5614 9.59788C69.1607 8.65196 68.4286 7.79763 67.4263 7.2189C65.0204 5.8299 62.3883 7.06934 61.2332 9.07005C58.4977 13.8079 63.0927 21.9209 63.2896 22.2641C63.3348 22.3429 63.3991 22.4062 63.4752 22.4502C63.5513 22.4941 63.6383 22.5181 63.7291 22.5178C64.1248 22.5168 73.4483 22.4396 76.1837 17.7017C77.3388 15.7011 77.0962 12.8018 74.6907 11.4131Z" fill="#F79F81"/>
<path d="M93.6907 53.4131C92.6881 52.8342 91.5821 52.6273 90.5625 52.7532C89.7944 52.8482 88.8632 52.3106 88.5614 51.5979C88.1607 50.652 87.4286 49.7976 86.4263 49.2189C84.0204 47.8299 81.3883 49.0693 80.2332 51.0701C77.4977 55.8079 82.0927 63.9209 82.2896 64.2641C82.3348 64.3429 82.3991 64.4062 82.4752 64.4502C82.5513 64.4941 82.6383 64.5181 82.7291 64.5178C83.1248 64.5168 92.4483 64.4396 95.1837 59.7017C96.3388 57.7011 96.0962 54.8018 93.6907 53.4131Z" fill="#F79F81"/>
<ellipse cx="85.9002" cy="108.021" rx="5" ry="8" transform="rotate(15 85.9002 108.021)" fill="#2D0049"/>
<path d="M99.232 111.383C99.7093 109.864 101.619 109.379 102.763 110.486C106.006 113.625 110.587 114.965 115.011 114.069L115.536 113.962C117.252 113.615 118.711 115.235 118.186 116.906L118.085 117.229C117.812 118.096 117.091 118.747 116.201 118.929L114.849 119.205C109.346 120.331 103.628 118.599 99.66 114.622C98.9857 113.947 98.7396 112.949 99.0259 112.039L99.232 111.383Z" fill="#2D0049"/>
<path d="M81.1017 123.806C81.5418 122.077 83.6619 121.435 84.9872 122.629L85.3583 122.964C89.2379 126.461 94.5027 127.994 99.6533 127.126L101.477 126.819C103.224 126.525 104.696 128.124 104.259 129.84C104.02 130.781 103.248 131.491 102.292 131.653L100.652 131.929C94.0356 133.043 87.2723 131.074 82.2884 126.581L81.812 126.152C81.158 125.562 80.8845 124.659 81.1017 123.806Z" fill="#2D0049"/>
<path d="M137.691 31.4131C136.688 30.8342 135.582 30.6273 134.563 30.7532C133.794 30.8482 132.863 30.3106 132.561 29.5979C132.161 28.652 131.429 27.7976 130.426 27.2189C128.02 25.8299 125.388 27.0693 124.233 29.0701C121.498 33.8079 126.093 41.9209 126.29 42.2641C126.335 42.3429 126.399 42.4062 126.475 42.4502C126.551 42.4941 126.638 42.5181 126.729 42.5178C127.125 42.5168 136.448 42.4396 139.184 37.7017C140.339 35.7011 140.096 32.8018 137.691 31.4131Z" fill="#F79F81"/>
</svg>
