<svg width="189" height="135" viewBox="0 0 189 135" fill="none" xmlns="http://www.w3.org/2000/svg">
<path d="M36.7286 76.272C31.2168 29.4631 58.2506 36.1506 74.9127 13.9347C91.5749 -8.28122 131.058 5.81929 151.247 13.9347C166.486 20.0605 187.348 14.0183 187.348 38.1204C187.348 66.5611 194.291 79.7409 179.711 119.974C172.243 140.582 154.718 134.634 140.139 136.021C125.559 137.408 85.3455 151.006 74.9127 136.021C47.9748 97.3305 42.2829 123.442 36.7286 76.272Z" fill="#FF7F3B"/>
<path d="M0.796443 111.046C-5.2285 62.6749 24.3221 69.5856 42.5356 46.6284C60.749 23.6713 100.618 40.3642 122.687 48.7503C139.345 55.0806 165.439 46.7148 165.439 71.6211C165.439 101.011 173.959 114.664 159.92 158.029C152.908 179.689 129.771 171.355 113.834 172.788C97.8972 174.222 53.9396 188.273 42.5356 172.788C13.0896 132.807 6.86784 159.789 0.796443 111.046Z" fill="#FF7F3B"/>
<rect x="52" y="26" width="4" height="48" rx="2" transform="rotate(30 52 26)" fill="#724878"/>
<rect x="74" y="3.79028" width="4" height="100" rx="2" transform="rotate(30 74 3.79028)" fill="#724878"/>
<rect x="77" y="15" width="4" height="68" rx="2" transform="rotate(30 77 15)" fill="#724878"/>
<rect x="95" width="4" height="68" rx="2" transform="rotate(30 95 0)" fill="#724878"/>
<path d="M131.123 95.3828C130.645 93.8639 128.736 93.379 127.592 94.4862C124.348 97.6247 119.767 98.9646 115.344 98.0686L114.819 97.9622C113.103 97.6146 111.643 99.2355 112.168 100.906L112.27 101.229C112.542 102.096 113.263 102.747 114.153 102.929L115.505 103.205C121.009 104.331 126.726 102.599 130.694 98.6224C131.369 97.9466 131.615 96.9494 131.329 96.0386L131.123 95.3828Z" fill="#490000"/>
<path d="M158.311 87.3706C157.834 85.8517 155.925 85.3668 154.781 86.474C151.537 89.6125 146.956 90.9524 142.533 90.0563L142.008 89.95C140.292 89.6024 138.832 91.2233 139.357 92.8936L139.459 93.2168C139.731 94.0836 140.452 94.7344 141.342 94.9165L142.694 95.1931C148.198 96.3192 153.915 94.587 157.883 90.6102C158.558 89.9344 158.804 88.9372 158.518 88.0264L158.311 87.3706Z" fill="#490000"/>
<path d="M146.796 107.447C146.117 104.914 143.052 103.274 139.706 104.171C136.36 105.067 134.526 108.02 135.205 110.553C135.883 113.086 138.948 114.726 142.294 113.83C145.64 112.933 147.474 109.98 146.796 107.447Z" stroke="#490000" stroke-width="2"/>
</svg>
