<svg width="215" height="181" viewBox="0 0 215 181" fill="none" xmlns="http://www.w3.org/2000/svg">
<path d="M95.5679 28.3554C101.267 21.0851 112.699 22.7102 116.146 31.2806L155.727 129.697C159.174 138.267 152.051 147.355 142.905 146.055L37.8834 131.126C28.7377 129.826 24.4291 119.113 30.1279 111.842L95.5679 28.3554Z" fill="#FFD07A"/>
<path d="M141.48 74.7033C148.251 69.6179 157.988 73.7691 159.006 82.1754L172.237 191.362C173.256 199.768 164.792 206.125 157.003 202.804L55.8293 159.669C48.0399 156.348 46.7665 145.84 53.5373 140.755L141.48 74.7033Z" fill="#FFD07A"/>
<ellipse cx="67.5" cy="65.5" rx="5.5" ry="8.5" fill="#002E00"/>
<ellipse cx="90.5" cy="65.5" rx="5.5" ry="8.5" fill="#002E00"/>
<circle cx="79" cy="119" r="6" fill="#FF7F3B"/>
<circle cx="109" cy="116" r="6" fill="#056CEF"/>
<circle cx="139" cy="136" r="6" fill="#F0F1ED"/>
<circle cx="100" cy="144" r="6" fill="#D4F2FA"/>
<circle cx="154" cy="180" r="6" fill="#056CEF"/>
<circle cx="121" cy="163" r="6" fill="#FF93D4"/>
<circle cx="67" cy="151" r="6" fill="#056CEF"/>
<circle cx="136" cy="107" r="6" fill="#0AE17A"/>
<circle cx="124" cy="84" r="6" fill="#F7FAFF"/>
<circle cx="154" cy="84" r="6" fill="#FF93D4"/>
</svg>
